<svg width="500" height="500" viewBox="0 0 500 500" fill="none" xmlns="http://www.w3.org/2000/svg">
<path d="M467.327 299.943C454.15 339.881 425.764 383.651 383.989 397.9C320.869 419.435 315.23 471.203 200.67 470.85C182.809 470.797 166.229 468.926 150.932 465.509C142.709 463.673 134.854 461.378 127.38 458.673C59.5158 434.193 22.3588 375.975 17.0568 313.763C10.0698 231.941 65.7518 190.661 102.038 166.347C138.324 142.034 179.698 51.6586 292.32 51.1206C309.491 51.0456 326.691 52.7286 343.444 56.5826C381.685 65.3626 421.033 86.5306 444.669 118.787C446.444 121.21 448.143 123.695 449.776 126.23C481.656 175.831 485.295 245.496 467.327 299.943Z" fill="#2F80ED"/>
<path opacity="0.7" d="M467.327 299.943C454.15 339.881 425.764 383.651 383.989 397.9C320.869 419.435 315.23 471.203 200.67 470.85C182.809 470.797 166.229 468.926 150.932 465.509C142.709 463.673 134.854 461.378 127.38 458.673C59.5158 434.193 22.3588 375.975 17.0568 313.763C10.0698 231.941 65.7518 190.661 102.038 166.347C138.324 142.034 179.698 51.6586 292.32 51.1206C309.491 51.0456 326.691 52.7286 343.444 56.5826C381.685 65.3626 421.033 86.5306 444.669 118.787C446.444 121.21 448.143 123.695 449.776 126.23C481.656 175.831 485.295 245.496 467.327 299.943Z" fill="#F3F4F6"/>
<path d="M482.688 453.128H20.9448" stroke="#1F2937" stroke-miterlimit="10" stroke-linecap="round" stroke-linejoin="round"/>
<path d="M38.1621 389.862C40.3161 390.802 45.5821 390.684 45.5861 390.684C45.6411 390.683 44.4541 387.236 44.3541 387.028C43.1991 384.611 39.5441 380.619 36.5711 381.021C34.4291 381.311 33.2381 383.454 33.7211 385.471C34.2161 387.53 36.3291 389.06 38.1621 389.862Z" fill="#1F2937"/>
<path d="M39.9799 405.116C42.2139 405.442 46.9139 404.079 47.2869 403.969C48.0289 406.6 49.0039 409.24 50.1379 411.857C50.7839 413.354 51.4819 414.841 52.2009 416.324C51.7719 415.696 51.3839 415.138 51.3219 415.065C49.5679 413.038 44.9899 410.154 42.2289 411.327C40.2389 412.172 39.6569 414.554 40.6549 416.371C41.6749 418.227 44.1179 419.145 46.0979 419.433C48.1079 419.726 52.1379 418.644 53.2009 418.344C53.4819 418.91 53.7569 419.478 54.0409 420.043C55.4019 422.753 56.7719 425.451 58.0339 428.139C58.4789 429.086 58.8829 430.035 59.2909 430.983C58.9099 430.425 58.5839 429.959 58.5269 429.893C56.7739 427.867 52.1959 424.982 49.4339 426.156C47.4439 427.001 46.8609 429.383 47.8599 431.2C48.8809 433.056 51.3229 433.974 53.3029 434.263C55.2209 434.543 58.9499 433.578 60.2139 433.227C60.6019 434.211 60.9929 435.195 61.3239 436.165C61.5359 436.833 61.7859 437.461 61.9599 438.143C62.1479 438.815 62.3329 439.48 62.5169 440.14C62.8249 441.422 63.1499 442.743 63.4179 444.001C63.6119 444.875 63.7799 445.711 63.9519 446.553C63.5199 445.605 62.6339 443.767 62.5419 443.622C61.1169 441.354 57.0279 437.809 54.1199 438.55C52.0249 439.084 51.0889 441.35 51.8009 443.298C52.5279 445.287 54.8029 446.565 56.7169 447.15C58.8239 447.794 63.4889 447.206 64.0709 447.128C64.3509 448.522 64.6089 449.88 64.8329 451.166C64.9529 451.846 65.0569 452.486 65.1629 453.128H67.0179C66.8809 452.387 66.7379 451.63 66.5799 450.839C66.3019 449.423 65.9769 447.915 65.6279 446.369C65.9789 446.23 67.9679 445.425 69.7309 444.44C71.2669 446.103 75.2019 448.049 75.7109 448.297C75.1759 449.614 74.6419 450.889 74.1189 452.085C73.9619 452.447 73.8099 452.784 73.6559 453.128H75.6099C75.6589 453.01 75.7069 452.898 75.7559 452.776C76.3049 451.441 76.8659 450.003 77.4279 448.522C77.9919 448.64 82.6099 449.578 84.7619 449.092C86.7139 448.651 89.0779 447.546 89.9519 445.617C90.8069 443.728 90.0419 441.398 87.9919 440.71C85.1479 439.754 80.8069 442.985 79.2159 445.141C79.1219 445.268 78.2579 446.762 77.7289 447.713C77.9549 447.107 78.1809 446.52 78.4069 445.893C78.8609 444.656 79.2779 443.408 79.7309 442.067C79.9269 441.412 80.1249 440.749 80.3249 440.081C80.5369 439.422 80.6779 438.699 80.8589 438.003C81.2459 436.379 81.5589 434.714 81.8369 433.031C82.9209 433.425 86.7919 434.772 88.7979 434.631C90.7939 434.491 93.2979 433.758 94.4539 431.983C95.5859 430.245 95.1819 427.826 93.2609 426.835C90.5939 425.46 85.8129 427.995 83.9149 429.885C83.7969 430.002 82.5859 431.512 81.9379 432.354C82.0969 431.341 82.2609 430.33 82.3889 429.299C82.7579 426.324 83.0389 423.301 83.3329 420.287C83.4219 419.364 83.5229 418.445 83.6199 417.524C84.0039 417.669 88.5709 419.369 90.8169 419.211C92.8129 419.071 95.3169 418.338 96.4729 416.562C97.6049 414.825 97.2009 412.405 95.2799 411.415C92.6129 410.04 87.8329 412.575 85.9339 414.465C85.7909 414.607 84.0529 416.782 83.6379 417.356C83.8519 415.329 84.0839 413.311 84.3939 411.331C84.8169 408.599 85.3839 405.941 86.1229 403.407C86.3019 403.475 91.0599 405.27 93.3599 405.109C95.3559 404.969 97.8609 404.235 99.0159 402.46C100.148 400.722 99.7439 398.303 97.8229 397.313C95.1559 395.938 90.3759 398.473 88.4769 400.363C88.3279 400.511 86.4589 402.852 86.1499 403.3C86.1949 403.149 86.2239 402.989 86.2699 402.839C87.0939 400.144 88.2299 397.636 89.4089 395.341C90.0909 394.006 90.8189 392.768 91.5529 391.579C92.4049 392.004 96.3199 393.905 98.4059 393.989C100.406 394.069 102.975 393.615 104.319 391.978C105.635 390.375 105.499 387.926 103.699 386.731C101.199 385.071 96.1689 387.066 94.0739 388.736C93.9599 388.827 92.9039 389.878 92.1459 390.655C92.4849 390.123 92.8259 389.569 93.1609 389.066C94.4159 387.176 95.6819 385.522 96.8149 384.067C97.4659 383.245 98.0699 382.514 98.6439 381.836C99.6969 381.818 103.943 381.689 105.799 380.818C107.61 379.967 109.682 378.381 110.12 376.308C110.549 374.279 109.3 372.168 107.151 371.937C104.168 371.615 100.623 375.704 99.5329 378.151C99.4389 378.363 98.3459 381.84 98.4009 381.839C98.4009 381.839 98.4519 381.839 98.4649 381.838C97.8999 382.479 97.3029 383.173 96.6639 383.944C95.4969 385.378 94.1909 387.008 92.8909 388.878C91.5859 390.744 90.2199 392.807 88.9779 395.111C87.7299 397.418 86.5349 399.909 85.6359 402.635C85.6259 402.666 85.6189 402.699 85.6089 402.73C85.6249 401.851 85.5859 399.392 85.5609 399.204C85.2159 396.547 82.9899 391.615 80.0389 391.07C77.9139 390.677 76.1129 392.342 75.9439 394.41C75.7709 396.521 77.3019 398.634 78.7939 399.967C80.4769 401.471 85.1489 402.926 85.5209 403.041C84.6879 405.644 84.0449 408.384 83.5469 411.191C83.2609 412.796 83.0219 414.422 82.8039 416.055C82.7929 415.295 82.7779 414.615 82.7649 414.52C82.4209 411.863 80.1939 406.932 77.2429 406.386C75.1169 405.993 73.3169 407.658 73.1479 409.725C72.9749 411.836 74.5059 413.949 75.9979 415.282C77.5119 416.635 81.4709 417.956 82.5219 418.292C82.4449 418.919 82.3609 419.545 82.2859 420.173C81.9259 423.184 81.5799 426.19 81.1499 429.129C80.9989 430.165 80.8119 431.179 80.6289 432.194C80.6179 431.519 80.6039 430.95 80.5929 430.864C80.2479 428.206 78.0219 423.275 75.0719 422.73C72.9459 422.338 71.1449 424.002 70.9759 426.07C70.8029 428.18 72.3339 430.294 73.8269 431.627C75.2719 432.918 78.9149 434.171 80.1629 434.575C79.9439 435.609 79.7269 436.646 79.4679 437.638C79.2759 438.311 79.1379 438.973 78.9079 439.639C78.6929 440.302 78.4809 440.961 78.2709 441.611C77.8199 442.85 77.3629 444.131 76.8929 445.328C76.5719 446.164 76.2509 446.954 75.9309 447.75C76.0929 446.721 76.3679 444.7 76.3719 444.528C76.4129 442.749 75.7809 439.855 74.5229 437.821C74.5309 437.558 74.5159 437.296 74.4739 437.036C74.1449 434.988 72.2209 433.467 70.1319 434.024C67.2329 434.796 65.3939 439.885 65.2569 442.561C65.2489 442.719 65.3519 444.441 65.4349 445.527C65.2889 444.896 65.1549 444.282 64.9959 443.635C64.6919 442.353 64.3499 441.082 63.9889 439.713C63.7909 439.058 63.5909 438.397 63.3889 437.729C63.2029 437.063 62.9209 436.382 62.6879 435.701C62.1139 434.133 61.4569 432.572 60.7599 431.014C61.8829 430.745 65.8539 429.733 67.4489 428.509C69.0369 427.291 70.7199 425.297 70.7049 423.18C70.6899 421.106 69.0199 419.311 66.8699 419.544C63.8869 419.868 61.2979 424.62 60.7569 427.244C60.7229 427.408 60.5469 429.334 60.4699 430.394C60.0439 429.461 59.6229 428.527 59.1609 427.597C57.8279 424.912 56.3959 422.236 54.9769 419.56C54.5419 418.74 54.1189 417.919 53.6919 417.098C54.0929 417.006 58.8389 415.905 60.6259 414.534C62.2129 413.316 63.8969 411.323 63.8819 409.205C63.8669 407.131 62.1959 405.336 60.0469 405.57C57.0639 405.894 54.4749 410.646 53.9339 413.27C53.8929 413.468 53.6429 416.24 53.6139 416.948C52.6749 415.14 51.7549 413.329 50.9209 411.506C49.7669 408.993 48.7739 406.465 47.9919 403.943C48.1789 403.901 53.1379 402.773 54.9679 401.37C56.5559 400.152 58.2399 398.159 58.2239 396.041C58.2089 393.967 56.5379 392.172 54.3889 392.406C51.4059 392.73 48.8179 397.482 48.2759 400.106C48.2329 400.312 47.9659 403.295 47.9559 403.839C47.9099 403.689 47.8449 403.539 47.8009 403.389C47.0019 400.686 46.5659 397.968 46.2829 395.403C46.1149 393.913 46.0389 392.48 45.9959 391.083C46.9409 390.967 51.2549 390.393 53.0409 389.312C54.7529 388.275 56.6459 386.479 56.8629 384.373C57.0759 382.31 55.6119 380.342 53.4509 380.338C50.4499 380.332 47.3559 384.771 46.5289 387.32C46.4839 387.459 46.1829 388.918 45.9789 389.984C45.9689 389.353 45.9469 388.703 45.9499 388.099C45.9539 385.83 46.0969 383.752 46.2399 381.914C46.3289 380.869 46.4309 379.926 46.5349 379.044C47.4029 378.447 50.8729 375.997 51.9399 374.246C52.9819 372.537 53.8339 370.072 53.0559 368.102C52.2939 366.173 50.0879 365.101 48.1689 366.093C45.5029 367.471 44.8019 372.837 45.2429 375.479C45.2819 375.707 46.2879 379.21 46.3339 379.18C46.3339 379.18 46.3759 379.151 46.3859 379.144C46.2679 379.99 46.1529 380.899 46.0459 381.894C45.8629 383.733 45.6739 385.813 45.6209 388.091C45.5619 390.367 45.5609 392.842 45.7959 395.448C46.0279 398.06 46.4049 400.797 47.1589 403.567C47.1669 403.598 47.1809 403.63 47.1889 403.661C46.7169 402.919 45.3279 400.89 45.2029 400.746C43.4499 398.72 38.8719 395.835 36.1099 397.008C34.1209 397.853 33.5369 400.235 34.5369 402.053C35.5579 403.91 37.9999 404.827 39.9799 405.116Z" fill="#1F2937"/>
<path d="M91.4319 391.02C91.4789 391.049 92.3899 387.52 92.4219 387.291C92.7909 384.637 91.9449 379.292 89.2439 377.987C87.2979 377.047 85.1219 378.178 84.4129 380.127C83.6889 382.117 84.6069 384.559 85.6949 386.239C86.9699 388.211 91.4279 391.017 91.4319 391.02Z" fill="#1F2937"/>
<path d="M180.195 423.924C181.189 424.358 183.62 424.303 183.622 424.303C183.647 424.302 183.099 422.712 183.053 422.615C182.52 421.499 180.833 419.657 179.46 419.842C178.471 419.976 177.922 420.965 178.145 421.896C178.373 422.848 179.348 423.555 180.195 423.924Z" fill="#1F2937"/>
<path d="M181.034 430.966C182.065 431.116 184.235 430.487 184.407 430.436C184.75 431.65 185.2 432.869 185.723 434.077C186.021 434.768 186.343 435.455 186.675 436.139C186.477 435.849 186.298 435.591 186.269 435.558C185.46 434.623 183.346 433.291 182.072 433.833C181.153 434.223 180.885 435.322 181.346 436.161C181.817 437.018 182.945 437.441 183.858 437.575C184.785 437.71 186.646 437.211 187.137 437.072C187.267 437.333 187.394 437.596 187.525 437.856C188.153 439.107 188.785 440.352 189.368 441.593C189.574 442.03 189.76 442.468 189.948 442.906C189.772 442.649 189.621 442.433 189.595 442.403C188.786 441.468 186.673 440.136 185.398 440.678C184.479 441.068 184.21 442.167 184.672 443.006C185.143 443.863 186.27 444.287 187.184 444.42C188.069 444.549 189.79 444.104 190.374 443.942C190.553 444.396 190.733 444.85 190.886 445.298C190.984 445.606 191.099 445.896 191.18 446.211C191.267 446.521 191.352 446.828 191.437 447.133C191.579 447.724 191.729 448.334 191.853 448.915C191.942 449.318 192.02 449.704 192.099 450.093C191.899 449.655 191.491 448.807 191.448 448.74C190.79 447.693 188.903 446.057 187.561 446.399C186.594 446.646 186.162 447.692 186.491 448.591C186.827 449.509 187.877 450.099 188.76 450.369C189.733 450.666 191.886 450.395 192.155 450.359C192.284 451.002 192.403 451.629 192.507 452.223C192.562 452.537 192.61 452.832 192.659 453.129H193.515C193.452 452.787 193.386 452.438 193.313 452.072C193.185 451.418 193.034 450.722 192.873 450.009C193.035 449.945 193.953 449.573 194.767 449.118C195.476 449.886 197.292 450.784 197.527 450.898C197.28 451.506 197.034 452.095 196.792 452.647C196.719 452.814 196.649 452.97 196.578 453.129H197.48C197.503 453.075 197.525 453.023 197.548 452.967C197.802 452.351 198.06 451.687 198.32 451.003C198.58 451.058 200.712 451.49 201.705 451.266C202.606 451.062 203.697 450.552 204.101 449.662C204.496 448.79 204.142 447.715 203.196 447.397C201.883 446.956 199.879 448.447 199.145 449.442C199.102 449.501 198.703 450.19 198.459 450.629C198.563 450.349 198.668 450.078 198.772 449.789C198.982 449.218 199.174 448.642 199.383 448.023C199.473 447.72 199.565 447.415 199.657 447.106C199.755 446.802 199.82 446.468 199.904 446.147C200.083 445.397 200.227 444.629 200.355 443.852C200.855 444.034 202.642 444.656 203.568 444.59C204.489 444.525 205.645 444.187 206.179 443.367C206.702 442.565 206.515 441.448 205.628 440.991C204.397 440.356 202.19 441.527 201.314 442.399C201.259 442.453 200.701 443.15 200.401 443.539C200.475 443.071 200.55 442.605 200.609 442.129C200.779 440.756 200.909 439.361 201.045 437.969C201.086 437.543 201.133 437.119 201.177 436.694C201.354 436.761 203.462 437.546 204.499 437.473C205.42 437.408 206.576 437.07 207.11 436.25C207.633 435.448 207.446 434.331 206.559 433.874C205.328 433.239 203.122 434.409 202.245 435.282C202.179 435.348 201.377 436.351 201.185 436.617C201.284 435.681 201.391 434.75 201.534 433.836C201.729 432.575 201.991 431.348 202.332 430.178C202.414 430.209 204.611 431.038 205.673 430.964C206.594 430.899 207.75 430.561 208.284 429.741C208.806 428.939 208.62 427.822 207.733 427.365C206.502 426.73 204.296 427.901 203.419 428.773C203.35 428.842 202.488 429.922 202.345 430.129C202.366 430.06 202.379 429.985 202.4 429.916C202.78 428.672 203.305 427.515 203.849 426.455C204.164 425.839 204.5 425.267 204.839 424.718C205.232 424.914 207.039 425.792 208.002 425.83C208.925 425.867 210.111 425.657 210.731 424.902C211.338 424.162 211.276 423.032 210.445 422.48C209.291 421.714 206.969 422.635 206.002 423.405C205.949 423.447 205.462 423.932 205.112 424.291C205.269 424.046 205.426 423.79 205.581 423.558C206.16 422.686 206.745 421.922 207.268 421.25C207.568 420.87 207.847 420.533 208.112 420.22C208.598 420.212 210.558 420.152 211.415 419.75C212.251 419.357 213.207 418.625 213.409 417.668C213.607 416.731 213.031 415.757 212.039 415.65C210.662 415.502 209.026 417.389 208.523 418.518C208.48 418.616 207.975 420.221 208.001 420.221C208.001 420.221 208.025 420.221 208.03 420.221C207.769 420.517 207.493 420.837 207.199 421.193C206.66 421.855 206.058 422.607 205.457 423.47C204.855 424.331 204.224 425.284 203.651 426.347C203.075 427.412 202.523 428.562 202.108 429.82C202.103 429.834 202.1 429.85 202.095 429.864C202.102 429.458 202.084 428.323 202.073 428.236C201.914 427.01 200.886 424.733 199.524 424.481C198.543 424.3 197.712 425.068 197.634 426.023C197.554 426.998 198.261 427.973 198.95 428.588C199.727 429.282 201.884 429.954 202.055 430.007C201.67 431.209 201.374 432.473 201.144 433.769C201.012 434.51 200.902 435.26 200.801 436.014C200.796 435.663 200.789 435.349 200.783 435.305C200.624 434.078 199.596 431.802 198.234 431.55C197.253 431.368 196.422 432.137 196.344 433.091C196.264 434.065 196.971 435.041 197.659 435.656C198.358 436.28 200.185 436.89 200.671 437.045C200.635 437.334 200.597 437.623 200.562 437.913C200.396 439.303 200.236 440.69 200.038 442.047C199.968 442.525 199.882 442.993 199.798 443.462C199.793 443.151 199.786 442.888 199.781 442.848C199.622 441.621 198.594 439.345 197.232 439.093C196.251 438.912 195.419 439.68 195.341 440.635C195.261 441.609 195.968 442.585 196.657 443.2C197.324 443.796 199.005 444.374 199.582 444.561C199.481 445.039 199.381 445.517 199.261 445.975C199.172 446.286 199.109 446.591 199.002 446.899C198.903 447.205 198.805 447.509 198.708 447.809C198.5 448.381 198.289 448.972 198.072 449.525C197.924 449.911 197.776 450.275 197.628 450.643C197.703 450.168 197.83 449.235 197.832 449.156C197.851 448.335 197.559 446.999 196.978 446.06C196.982 445.939 196.975 445.818 196.955 445.698C196.803 444.753 195.915 444.051 194.951 444.308C193.613 444.664 192.764 447.014 192.701 448.248C192.697 448.321 192.745 449.116 192.783 449.617C192.715 449.326 192.654 449.042 192.581 448.744C192.441 448.152 192.283 447.566 192.116 446.934C192.025 446.632 191.932 446.327 191.839 446.018C191.753 445.711 191.623 445.396 191.516 445.082C191.251 444.358 190.948 443.638 190.626 442.919C191.144 442.795 192.977 442.328 193.713 441.763C194.446 441.201 195.223 440.281 195.216 439.303C195.209 438.345 194.438 437.517 193.446 437.625C192.069 437.775 190.874 439.968 190.624 441.179C190.609 441.255 190.527 442.144 190.491 442.633C190.294 442.202 190.1 441.771 189.887 441.342C189.272 440.102 188.61 438.867 187.956 437.632C187.755 437.254 187.56 436.875 187.363 436.496C187.548 436.454 189.739 435.945 190.564 435.313C191.297 434.751 192.074 433.831 192.067 432.853C192.06 431.896 191.289 431.067 190.297 431.175C188.92 431.324 187.725 433.518 187.475 434.729C187.456 434.82 187.341 436.1 187.327 436.427C186.893 435.592 186.469 434.756 186.084 433.915C185.551 432.755 185.093 431.588 184.732 430.424C184.818 430.404 187.107 429.884 187.952 429.236C188.685 428.674 189.462 427.754 189.455 426.776C189.448 425.819 188.677 424.99 187.685 425.098C186.308 425.248 185.113 427.441 184.863 428.652C184.843 428.747 184.72 430.124 184.715 430.375C184.694 430.306 184.664 430.237 184.643 430.167C184.274 428.919 184.073 427.665 183.942 426.481C183.865 425.793 183.829 425.132 183.809 424.487C184.245 424.434 186.237 424.169 187.061 423.669C187.851 423.191 188.725 422.362 188.825 421.389C188.923 420.437 188.248 419.528 187.25 419.527C185.865 419.524 184.436 421.573 184.055 422.75C184.034 422.814 183.895 423.488 183.801 423.98C183.796 423.689 183.786 423.389 183.788 423.11C183.79 422.063 183.856 421.104 183.922 420.255C183.963 419.772 184.01 419.337 184.058 418.93C184.459 418.654 186.06 417.524 186.553 416.716C187.034 415.927 187.427 414.789 187.068 413.88C186.716 412.989 185.698 412.495 184.812 412.953C183.582 413.589 183.258 416.066 183.461 417.286C183.479 417.391 183.943 419.008 183.965 418.994C183.965 418.994 183.985 418.981 183.989 418.977C183.935 419.367 183.881 419.787 183.832 420.246C183.748 421.095 183.66 422.055 183.636 423.107C183.609 424.158 183.608 425.3 183.717 426.503C183.824 427.709 183.998 428.972 184.346 430.25C184.35 430.264 184.356 430.279 184.36 430.293C184.142 429.951 183.501 429.014 183.443 428.948C182.634 428.013 180.521 426.681 179.246 427.223C178.328 427.613 178.058 428.713 178.52 429.552C178.993 430.409 180.12 430.833 181.034 430.966Z" fill="#1F2937"/>
<path d="M204.784 424.459C204.805 424.472 205.226 422.843 205.241 422.738C205.411 421.513 205.021 419.046 203.774 418.444C202.876 418.01 201.871 418.532 201.544 419.432C201.21 420.351 201.633 421.478 202.136 422.253C202.724 423.163 204.782 424.458 204.784 424.459Z" fill="#1F2937"/>
<path d="M224.317 58.2744C218.263 61.8134 215.979 68.6674 214.883 71.9534C213.369 76.4964 208.068 68.9244 197.468 72.7104C186.868 76.4964 185.353 84.8254 183.082 87.0964C180.811 89.3674 165.667 95.4254 165.667 95.4254H317.621" stroke="#1F2937" stroke-miterlimit="10" stroke-linecap="round" stroke-linejoin="round"/>
<path d="M325.193 95.4268H343.603C343.603 95.4268 346.632 78.7688 339.817 70.4398C333.002 62.1108 317.859 74.2258 313.316 62.1108C313.316 62.1108 299.687 42.4248 283.029 40.9098C266.371 39.3958 259.557 52.2678 254.256 59.0818C248.956 65.8968 245.927 56.0528 233.055 56.0528" stroke="#1F2937" stroke-miterlimit="10" stroke-linecap="round" stroke-linejoin="round"/>
<path d="M252.47 81.9033C249.382 84.7783 248.956 88.6113 248.956 88.6113" stroke="#1F2937" stroke-miterlimit="10" stroke-linecap="round" stroke-linejoin="round"/>
<path d="M310.287 68.9256C310.287 68.9256 299.687 58.3256 287.572 59.0826C275.457 59.8396 280 74.2256 274.7 78.7686C269.4 83.3116 263.343 77.2546 256.528 79.5256" stroke="#1F2937" stroke-miterlimit="10" stroke-linecap="round" stroke-linejoin="round"/>
<path d="M72.4371 105.564C68.4821 107.876 66.9901 112.354 66.2741 114.501C65.2851 117.469 61.8221 112.522 54.8961 114.996C47.9701 117.469 46.9811 122.911 45.4971 124.395C44.0131 125.879 34.1191 129.837 34.1191 129.837H133.395" stroke="#1F2937" stroke-miterlimit="10" stroke-linecap="round" stroke-linejoin="round"/>
<path d="M138.342 129.837H150.37C150.37 129.837 152.349 118.954 147.897 113.512C143.445 108.07 133.551 115.985 130.583 108.071C130.583 108.071 121.679 95.2088 110.796 94.2198C99.913 93.2308 95.461 101.64 91.998 106.092C88.535 110.544 86.557 104.113 78.147 104.113" stroke="#1F2937" stroke-miterlimit="10" stroke-linecap="round" stroke-linejoin="round"/>
<path d="M90.8302 121.003C88.8132 122.881 88.5342 125.386 88.5342 125.386" stroke="#1F2937" stroke-miterlimit="10" stroke-linecap="round" stroke-linejoin="round"/>
<path d="M128.604 112.524C128.604 112.524 121.678 105.598 113.764 106.093C105.849 106.588 108.817 115.987 105.354 118.955C101.891 121.923 97.9339 117.966 93.4819 119.45" stroke="#1F2937" stroke-miterlimit="10" stroke-linecap="round" stroke-linejoin="round"/>
<path d="M274.58 145.419C271.822 147.031 270.781 150.154 270.282 151.651C269.592 153.721 267.177 150.271 262.348 151.996C257.519 153.721 256.829 157.515 255.794 158.55C254.759 159.585 247.86 162.345 247.86 162.345H317.09" stroke="#1F2937" stroke-miterlimit="10" stroke-linecap="round" stroke-linejoin="round"/>
<path d="M320.539 162.345H328.926C328.926 162.345 330.306 154.756 327.201 150.961C324.096 147.166 317.197 152.686 315.127 147.166C315.127 147.166 308.918 138.197 301.329 137.507C293.74 136.817 290.635 142.681 288.22 145.786C285.805 148.891 284.425 144.406 278.561 144.406" stroke="#1F2937" stroke-miterlimit="10" stroke-linecap="round" stroke-linejoin="round"/>
<path d="M287.406 156.185C285.999 157.495 285.805 159.241 285.805 159.241" stroke="#1F2937" stroke-miterlimit="10" stroke-linecap="round" stroke-linejoin="round"/>
<path d="M313.747 150.271C313.747 150.271 308.918 145.442 303.398 145.786C297.878 146.131 299.948 152.685 297.534 154.755C295.119 156.825 292.36 154.065 289.255 155.1" stroke="#1F2937" stroke-miterlimit="10" stroke-linecap="round" stroke-linejoin="round"/>
<path d="M103.594 362.904V321.198H52.876V296.468L97.097 193.146H130.839V298.145H148.234V321.198H130.839V362.904H103.594ZM77.187 298.145H103.594V224.374L77.187 298.145Z" fill="#1F2937" stroke="#1F2937" stroke-miterlimit="10" stroke-linecap="round" stroke-linejoin="round"/>
<path d="M207.753 365.42C197.831 365.42 189.625 363.324 183.128 359.133C176.631 354.941 171.739 349.145 168.458 341.738C165.173 334.334 163.533 325.81 163.533 316.17V240.931C163.533 231.012 165.105 222.314 168.248 214.839C171.392 207.366 176.212 201.531 182.709 197.339C189.206 193.147 197.553 191.052 207.753 191.052C217.95 191.052 226.301 193.147 232.797 197.339C239.294 201.531 244.115 207.366 247.258 214.839C250.402 222.314 251.974 231.012 251.974 240.931V316.169C251.974 325.809 250.33 334.334 247.049 341.737C243.764 349.145 238.876 354.94 232.378 359.132C225.882 363.324 217.673 365.42 207.753 365.42ZM207.753 340.481C212.082 340.481 215.298 339.154 217.394 336.499C219.489 333.846 220.884 330.63 221.585 326.858C222.283 323.086 222.633 319.385 222.633 315.75V241.35C222.633 237.44 222.319 233.563 221.69 229.719C221.061 225.878 219.699 222.629 217.603 219.973C215.507 217.321 212.223 215.991 207.753 215.991C203.28 215.991 199.999 217.321 197.903 219.973C195.808 222.629 194.445 225.878 193.816 229.719C193.187 233.563 192.873 237.44 192.873 241.35V315.75C192.873 319.385 193.256 323.086 194.026 326.858C194.793 330.63 196.227 333.846 198.322 336.499C200.418 339.153 203.562 340.481 207.753 340.481Z" fill="#1F2937" stroke="#1F2937" stroke-miterlimit="10" stroke-linecap="round" stroke-linejoin="round"/>
<path d="M321.135 362.904V321.198H270.417V296.468L314.638 193.146H348.379V298.145H365.774V321.198H348.379V362.904H321.135ZM294.727 298.145H321.135V224.374L294.727 298.145Z" fill="#1F2937" stroke="#1F2937" stroke-miterlimit="10" stroke-linecap="round" stroke-linejoin="round"/>
<path d="M116.231 362.904V321.198H65.5132V296.468L109.734 193.146H143.476V298.145H160.871V321.198H143.476V362.904H116.231ZM89.8242 298.145H116.231V224.374L89.8242 298.145Z" fill="#F3F4F6" stroke="#1F2937" stroke-miterlimit="10" stroke-linecap="round" stroke-linejoin="round"/>
<path d="M220.39 365.42C210.468 365.42 202.262 363.324 195.765 359.133C189.268 354.941 184.376 349.145 181.095 341.738C177.81 334.334 176.17 325.81 176.17 316.17V240.931C176.17 231.012 177.742 222.314 180.886 214.839C184.03 207.366 188.85 201.531 195.347 197.339C201.844 193.147 210.191 191.052 220.391 191.052C230.589 191.052 238.939 193.147 245.436 197.339C251.933 201.531 256.754 207.366 259.897 214.839C263.041 222.314 264.613 231.012 264.613 240.931V316.169C264.613 325.809 262.969 334.334 259.688 341.737C256.404 349.145 251.515 354.94 245.017 359.132C238.519 363.324 230.309 365.42 220.39 365.42ZM220.39 340.481C224.719 340.481 227.935 339.154 230.031 336.499C232.127 333.846 233.521 330.63 234.222 326.858C234.92 323.086 235.27 319.385 235.27 315.75V241.35C235.27 237.44 234.956 233.563 234.327 229.719C233.698 225.878 232.336 222.629 230.24 219.973C228.144 217.321 224.86 215.991 220.39 215.991C215.917 215.991 212.636 217.321 210.54 219.973C208.444 222.629 207.082 225.878 206.453 229.719C205.824 233.563 205.51 237.44 205.51 241.35V315.75C205.51 319.385 205.893 323.086 206.663 326.858C207.429 330.63 208.864 333.846 210.959 336.499C213.055 339.153 216.199 340.481 220.39 340.481Z" fill="#F3F4F6" stroke="#1F2937" stroke-miterlimit="10" stroke-linecap="round" stroke-linejoin="round"/>
<path d="M333.771 362.904V321.198H283.053V296.468L327.274 193.146H361.015V298.145H378.41V321.198H361.015V362.904H333.771ZM307.363 298.145H333.771V224.374L307.363 298.145Z" fill="#F3F4F6" stroke="#1F2937" stroke-miterlimit="10" stroke-linecap="round" stroke-linejoin="round"/>
<path d="M108.52 184.942C106.165 184.942 104.29 184.504 102.893 183.628C101.497 182.752 100.497 181.492 99.8952 179.85C99.2932 178.207 98.9922 176.263 98.9922 174.018V161.574C98.9922 159.329 99.2932 157.405 99.8952 155.804C100.497 154.202 101.497 152.977 102.893 152.128C104.29 151.28 106.164 150.855 108.52 150.855C110.929 150.855 112.825 151.28 114.208 152.128C115.59 152.977 116.59 154.202 117.206 155.804C117.822 157.406 118.13 159.33 118.13 161.574V174.06C118.13 176.278 117.822 178.202 117.206 179.83C116.59 181.46 115.59 182.719 114.208 183.609C112.825 184.497 110.929 184.942 108.52 184.942ZM108.52 180.465C109.533 180.465 110.279 180.246 110.759 179.808C111.238 179.37 111.56 178.768 111.724 178.001C111.888 177.235 111.97 176.399 111.97 175.496V160.176C111.97 159.246 111.888 158.41 111.724 157.671C111.56 156.932 111.238 156.351 110.759 155.926C110.28 155.502 109.533 155.289 108.52 155.289C107.561 155.289 106.836 155.501 106.343 155.926C105.85 156.351 105.522 156.932 105.357 157.671C105.192 158.41 105.111 159.246 105.111 160.176V175.496C105.111 176.4 105.186 177.235 105.337 178.001C105.487 178.768 105.809 179.37 106.302 179.808C106.795 180.246 107.534 180.465 108.52 180.465Z" fill="#1F2937"/>
<path d="M131.642 184.942C129.287 184.942 127.412 184.504 126.015 183.628C124.619 182.752 123.619 181.492 123.017 179.85C122.415 178.207 122.114 176.263 122.114 174.018V161.574C122.114 159.329 122.415 157.405 123.017 155.804C123.619 154.202 124.619 152.977 126.015 152.128C127.411 151.28 129.286 150.855 131.642 150.855C134.051 150.855 135.947 151.28 137.331 152.128C138.713 152.977 139.713 154.202 140.329 155.804C140.945 157.406 141.253 159.33 141.253 161.574V174.06C141.253 176.278 140.945 178.202 140.329 179.83C139.713 181.46 138.713 182.719 137.331 183.609C135.947 184.497 134.051 184.942 131.642 184.942ZM131.642 180.465C132.655 180.465 133.401 180.246 133.881 179.808C134.36 179.37 134.682 178.768 134.846 178.001C135.01 177.235 135.092 176.399 135.092 175.496V160.176C135.092 159.246 135.01 158.41 134.846 157.671C134.682 156.932 134.36 156.351 133.881 155.926C133.401 155.502 132.655 155.289 131.642 155.289C130.683 155.289 129.958 155.501 129.465 155.926C128.972 156.351 128.644 156.932 128.479 157.671C128.315 158.41 128.232 159.246 128.232 160.176V175.496C128.232 176.4 128.307 177.235 128.458 178.001C128.608 178.768 128.93 179.37 129.423 179.808C129.917 180.246 130.656 180.465 131.642 180.465Z" fill="#1F2937"/>
<path d="M145.729 184.491V151.224H155.504C157.503 151.224 159.125 151.594 160.371 152.333C161.617 153.072 162.534 154.147 163.123 155.557C163.712 156.968 164.006 158.672 164.006 160.67C164.006 162.833 163.636 164.579 162.897 165.906C162.158 167.235 161.124 168.199 159.796 168.801C158.468 169.404 156.901 169.705 155.094 169.705H151.808V184.49H145.729V184.491ZM151.807 165.435H154.107C155.202 165.435 156.058 165.278 156.674 164.963C157.29 164.649 157.714 164.142 157.947 163.443C158.179 162.745 158.296 161.807 158.296 160.63C158.296 159.426 158.207 158.447 158.029 157.694C157.851 156.941 157.468 156.387 156.879 156.031C156.29 155.675 155.366 155.497 154.107 155.497H151.807V165.435Z" fill="#1F2937"/>
<path d="M175.587 184.942C173.588 184.942 171.917 184.552 170.576 183.771C169.234 182.991 168.221 181.848 167.537 180.342C166.852 178.836 166.469 176.988 166.387 174.798L171.603 173.771C171.658 175.058 171.815 176.194 172.075 177.18C172.335 178.166 172.732 178.926 173.266 179.459C173.8 179.993 174.504 180.26 175.381 180.26C176.367 180.26 177.065 179.966 177.476 179.377C177.887 178.788 178.092 178.042 178.092 177.139C178.092 175.688 177.764 174.497 177.106 173.566C176.449 172.635 175.573 171.704 174.478 170.773L170.289 167.077C169.111 166.065 168.174 164.935 167.475 163.689C166.777 162.443 166.428 160.903 166.428 159.069C166.428 156.44 167.194 154.415 168.728 152.991C170.261 151.568 172.356 150.855 175.012 150.855C176.573 150.855 177.873 151.095 178.914 151.574C179.954 152.054 180.783 152.718 181.399 153.566C182.015 154.415 182.473 155.38 182.775 156.461C183.076 157.543 183.268 158.686 183.35 159.89L178.175 160.794C178.12 159.754 178.004 158.823 177.826 158.001C177.648 157.179 177.333 156.537 176.881 156.07C176.429 155.605 175.765 155.372 174.889 155.372C173.986 155.372 173.294 155.667 172.815 156.255C172.336 156.844 172.096 157.577 172.096 158.452C172.096 159.575 172.328 160.499 172.794 161.224C173.259 161.95 173.93 162.696 174.806 163.463L178.954 167.118C180.323 168.268 181.494 169.617 182.466 171.164C183.438 172.711 183.924 174.58 183.924 176.77C183.924 178.358 183.575 179.768 182.877 181C182.179 182.232 181.207 183.197 179.961 183.896C178.715 184.593 177.257 184.942 175.587 184.942Z" fill="#1F2937"/>
<path d="M186.635 184.491V179.07H192.056V184.491H186.635ZM188.36 176.688L186.676 151.265H192.261L190.29 176.688H188.36Z" fill="#1F2937"/>
<path d="M336.19 383.5V390.65H339.915V386.456C339.915 384.617 341.406 383.126 343.245 383.126H355.469C357.308 383.126 358.799 384.617 358.799 386.456V390.65H362.524V383.5C362.524 381.661 361.033 380.17 359.194 380.17H339.52C337.681 380.17 336.19 381.661 336.19 383.5Z" fill="#1F2937" stroke="#1F2937" stroke-miterlimit="10" stroke-linecap="round" stroke-linejoin="round"/>
<path d="M375.457 388.702H304.918C302.321 388.702 300.216 390.807 300.216 393.404V450.1C300.216 451.772 301.571 453.127 303.243 453.127H377.133C378.805 453.127 380.16 451.772 380.16 450.1V393.404C380.159 390.808 378.054 388.702 375.457 388.702Z" fill="#1F2937" stroke="#1F2937" stroke-miterlimit="10" stroke-linecap="round" stroke-linejoin="round"/>
<path d="M385.233 388.702H314.694C312.097 388.702 309.992 390.807 309.992 393.404V450.1C309.992 451.772 311.347 453.127 313.019 453.127H386.909C388.581 453.127 389.936 451.772 389.936 450.1V393.404C389.935 390.808 387.83 388.702 385.233 388.702Z" fill="#6B7280" stroke="#1F2937" stroke-miterlimit="10" stroke-linecap="round" stroke-linejoin="round"/>
<path d="M410.001 262.16C410.001 262.16 389.896 322.557 388.158 333.49C386.421 344.423 387.538 357.998 388.583 364.866C389.628 371.733 400.333 431.046 400.333 431.046C400.333 431.046 397.683 430.152 397.489 432.069C397.295 433.986 397.963 442.097 397.963 442.097C397.963 442.097 395.186 445.987 387.875 450.221C380.564 454.456 377.009 455.734 379.192 457.117C381.376 458.5 390.71 458.998 394.521 458.431C398.332 457.864 408.583 456.667 410.249 456.389C411.916 456.111 416.961 457.188 418.566 454.282C420.171 451.376 419.009 442.559 419.414 439.442C419.819 436.325 417.551 431.359 417.535 430.642C417.518 429.925 415.515 362.887 415.515 362.887L416.782 346.238C416.782 346.238 416.409 362.094 418.233 363.862C420.057 365.63 439.075 431.81 439.075 431.81L437.231 434.722L439.532 441.122L437.716 445.228C437.716 445.228 429.061 453.319 425.523 455.314C421.984 457.309 418.412 457.871 420.362 459.498C422.312 461.126 441.413 460.2 441.413 460.2L461.397 456.146C461.397 456.146 464.424 452.729 463.879 449.873C463.334 447.017 460.704 436.801 460.704 436.801C460.704 436.801 461.346 423.4 460.618 422.939C459.89 422.478 456.189 417.545 455.905 415.639C455.621 413.733 453.543 376.3 451.347 370.006C449.15 363.713 446.422 353.867 446.422 353.867C446.422 353.867 447.971 352.301 448.072 350.614C448.173 348.927 447.68 345.851 447.68 345.851C447.68 345.851 468.546 291.551 469.502 288.444C470.458 285.337 474.759 268.61 474.759 261.919C474.759 255.228 474.281 250.21 474.281 250.21C474.281 250.21 458.031 257.618 441.543 258.335C425.054 259.052 410.477 258.096 410.477 258.096L410.001 262.16Z" fill="#1F2937" stroke="#1F2937" stroke-miterlimit="10" stroke-linecap="round" stroke-linejoin="round"/>
<path d="M459.945 264.312C459.945 264.312 459.945 280.562 468.07 283.668" stroke="#F3F4F6" stroke-miterlimit="10" stroke-linecap="round" stroke-linejoin="round"/>
<path d="M471.655 259.532C471.655 259.532 472.133 270.524 469.982 280.322" stroke="#F3F4F6" stroke-miterlimit="10" stroke-linecap="round" stroke-linejoin="round"/>
<path d="M456.071 309.339C453.845 314.078 452.14 317.757 452.059 318.078" stroke="#F3F4F6" stroke-miterlimit="10" stroke-linecap="round" stroke-linejoin="round"/>
<path d="M466.875 286.535C466.875 286.535 461.662 297.473 457.42 306.472" stroke="#F3F4F6" stroke-miterlimit="10" stroke-linecap="round" stroke-linejoin="round"/>
<path d="M418.864 331.294L427.685 293.465L418.365 285.34" stroke="#F3F4F6" stroke-miterlimit="10" stroke-linecap="round" stroke-linejoin="round"/>
<path d="M416.948 339.512L417.864 335.584" stroke="#F3F4F6" stroke-miterlimit="10" stroke-linecap="round" stroke-linejoin="round"/>
<path d="M371.072 175.597L347.141 186.018C347.141 186.018 361.422 156.298 362.001 154.561C362.58 152.824 354.088 138.157 354.281 137.578C354.474 136.999 361.808 128.122 362.001 126.192C362.194 124.262 366.247 117.507 363.159 117.122C360.071 116.736 343.667 131.982 343.281 135.842C342.895 139.702 350.615 152.825 351.387 153.983C352.159 155.141 311.631 198.563 310.859 205.511C310.087 212.459 313.368 216.897 319.158 217.669C324.948 218.441 370.493 202.809 377.441 200.879C384.389 198.949 386.704 202.037 386.704 202.037C386.704 202.037 408.512 228.476 410.056 231.757C411.6 235.038 410.828 247.196 409.091 250.863C407.354 254.53 405.424 260.898 406.389 261.863C407.354 262.828 408.063 264.017 410.957 264.789C413.852 265.561 433.986 268.039 445.373 266.302C456.759 264.565 470.269 258.582 473.356 256.267C476.444 253.951 476.83 251.249 476.83 247.775C476.83 244.301 474.514 241.213 472.97 237.739C471.426 234.265 461.198 202.422 456.952 192.193C452.706 181.965 454.057 174.245 438.039 165.175C422.021 156.105 403.233 158.007 403.233 158.007L371.072 175.597Z" fill="#2F80ED" stroke="#1F2937" stroke-miterlimit="10" stroke-linecap="round" stroke-linejoin="round"/>
<path d="M346.182 200.574L345.983 203.581" stroke="#1F2937" stroke-miterlimit="10" stroke-linecap="round" stroke-linejoin="round"/>
<path d="M340.966 205.318L347.141 186.019L346.331 198.304" stroke="#1F2937" stroke-miterlimit="10" stroke-linecap="round" stroke-linejoin="round"/>
<path d="M340.387 168.843C340.387 168.843 341.352 176.177 350.808 176.563" stroke="#1F2937" stroke-miterlimit="10" stroke-linecap="round" stroke-linejoin="round"/>
<path d="M384.581 200.3C384.581 200.3 377.633 195.668 370.493 193.352Z" fill="#F3F4F6"/>
<path d="M384.581 200.3C384.581 200.3 377.633 195.668 370.493 193.352" stroke="#1F2937" stroke-miterlimit="10" stroke-linecap="round" stroke-linejoin="round"/>
<path d="M368.387 195.84C367.616 195.71 366.836 195.587 366.054 195.476" stroke="#1F2937" stroke-miterlimit="10" stroke-linecap="round" stroke-linejoin="round"/>
<path d="M382.072 198.949C382.072 198.949 377.153 197.509 371.098 196.332" stroke="#1F2937" stroke-miterlimit="10" stroke-linecap="round" stroke-linejoin="round"/>
<path d="M417.452 238.369C418.131 238.928 418.614 239.284 418.74 239.284" stroke="#1F2937" stroke-miterlimit="10" stroke-linecap="round" stroke-linejoin="round"/>
<path d="M410.056 231.758C410.056 231.758 413.46 234.919 416.013 237.143" stroke="#1F2937" stroke-miterlimit="10" stroke-linecap="round" stroke-linejoin="round"/>
<path d="M451.741 265.145L468.917 254.337" stroke="#1F2937" stroke-miterlimit="10" stroke-linecap="round" stroke-linejoin="round"/>
<path d="M461.525 223.012C459.588 230.857 455.831 244.221 451.356 250.671" stroke="#1F2937" stroke-miterlimit="10" stroke-linecap="round" stroke-linejoin="round"/>
<path d="M462.935 216.896C462.935 216.896 462.691 218.08 462.24 220.026" stroke="#1F2937" stroke-miterlimit="10" stroke-linecap="round" stroke-linejoin="round"/>
<path d="M462.935 227.126C462.935 227.126 459.268 243.144 456.373 247.583" stroke="#1F2937" stroke-miterlimit="10" stroke-linecap="round" stroke-linejoin="round"/>
<path d="M357.196 164.958C359.722 159.623 361.789 155.199 362.001 154.56C362.58 152.823 354.088 138.156 354.281 137.577C354.474 136.998 361.808 128.121 362.001 126.191C362.194 124.261 366.247 117.506 363.159 117.121C360.071 116.735 343.667 131.981 343.281 135.841C342.895 139.701 350.615 152.824 351.387 153.982C351.55 154.227 349.865 156.363 347.105 159.639C348.179 162.258 350.804 165.579 357.196 164.958Z" fill="#F3F4F6" stroke="#1F2937" stroke-miterlimit="10" stroke-linecap="round" stroke-linejoin="round"/>
<path d="M353.835 127.237C353.835 127.237 348.998 136.609 349.176 137.321" stroke="#1F2937" stroke-miterlimit="10" stroke-linecap="round" stroke-linejoin="round"/>
<path d="M350.243 127.354C350.243 127.354 344.725 135.187 345.081 136.433" stroke="#1F2937" stroke-miterlimit="10" stroke-linecap="round" stroke-linejoin="round"/>
<path d="M391.722 197.404L399.441 213.037L403.108 213.23L406.196 195.667L403.687 191.615L401.95 202.615L397.318 202.422L391.915 194.317L391.722 197.404Z" fill="#6B7280" stroke="#1F2937" stroke-miterlimit="10" stroke-linecap="round" stroke-linejoin="round"/>
<path d="M399.441 213.037L393.044 259.625L400.442 275.187L408.368 259.017L403.108 213.23L399.441 213.037Z" fill="#6B7280" stroke="#1F2937" stroke-miterlimit="10" stroke-linecap="round" stroke-linejoin="round"/>
<path d="M398.294 210.713L404.213 206.945L406.047 196.517L402.563 198.735L401.95 202.616L397.318 202.423L397.155 202.178L394.814 203.668L398.294 210.713Z" fill="#1F2937"/>
<path d="M403.108 213.231L403.117 213.178L403.041 213.227L403.108 213.231Z" fill="#1F2937"/>
<path d="M404.687 226.976L396.842 231.97L395.448 242.117L405.678 235.605L404.687 226.976Z" fill="#1F2937"/>
<path d="M404.094 221.817L403.108 213.231L403.041 213.227L399.068 215.756L397.675 225.904L404.094 221.817Z" fill="#1F2937"/>
<path d="M406.271 240.763L394.615 248.184L393.222 258.331L407.262 249.393L406.271 240.763Z" fill="#1F2937"/>
<path d="M405.185 265.511L408.368 259.018L407.855 254.551L394.633 262.968L398.013 270.078L405.185 265.511Z" fill="#1F2937"/>
<path d="M386.318 179.456C386.318 179.456 384.774 188.912 384.967 193.158C385.16 197.404 387.283 204.93 387.283 204.93L396.74 194.123L412.565 203.965C412.565 203.965 411.986 183.894 411.986 183.315C411.986 182.736 408.319 161.121 407.161 158.998C406.003 156.875 402.915 155.717 401.178 156.103C399.441 156.491 386.318 179.456 386.318 179.456Z" fill="#2F80ED" stroke="#1F2937" stroke-miterlimit="10" stroke-linecap="round" stroke-linejoin="round"/>
<path d="M359.656 126.738C359.656 126.738 359.157 140.875 359.49 146.531C359.823 152.186 358.991 156.677 360.488 161.334C361.985 165.991 363.648 174.973 365.145 177.966C366.642 180.96 369.802 183.787 374.459 183.787C379.116 183.787 384.272 179.962 386.767 177.467C389.262 174.972 393.586 171.479 395.915 166.989C398.244 162.498 396.248 151.188 396.58 148.028C396.913 144.868 397.578 139.379 397.578 139.379C397.578 139.379 400.904 131.229 398.243 127.404C395.582 123.578 383.773 119.254 374.791 120.086C365.81 120.917 359.656 126.738 359.656 126.738Z" fill="#F3F4F6" stroke="#1F2937" stroke-miterlimit="10" stroke-linecap="round" stroke-linejoin="round"/>
<path d="M367.473 142.705L368.804 147.695C368.804 147.695 364.812 159.338 365.81 160.003C366.808 160.668 374.958 159.837 374.958 159.837" stroke="#1F2937" stroke-miterlimit="10" stroke-linecap="round" stroke-linejoin="round"/>
<path d="M373.96 137.549C373.96 137.549 373.794 139.379 374.459 139.711C375.124 140.044 381.611 142.538 382.609 142.206C383.607 141.873 382.276 140.543 381.445 140.21C380.613 139.878 373.627 136.052 373.96 137.549Z" fill="#1F2937" stroke="#1F2937" stroke-miterlimit="10" stroke-linecap="round" stroke-linejoin="round"/>
<path d="M367.473 140.211C367.473 140.211 362.151 143.205 361.153 143.371C360.155 143.537 361.818 141.375 361.818 141.375C361.818 141.375 365.81 136.884 366.808 137.549C367.806 138.216 367.473 140.211 367.473 140.211Z" fill="#1F2937" stroke="#1F2937" stroke-miterlimit="10" stroke-linecap="round" stroke-linejoin="round"/>
<path d="M375.956 146.863C375.956 146.863 378.784 149.857 382.609 147.528" stroke="#1F2937" stroke-miterlimit="10" stroke-linecap="round" stroke-linejoin="round"/>
<path d="M362.151 148.194C362.151 148.194 364.812 149.857 367.473 147.196" stroke="#1F2937" stroke-miterlimit="10" stroke-linecap="round" stroke-linejoin="round"/>
<path d="M396.58 148.028C396.882 145.163 397.455 140.397 397.56 139.53L394.252 137.716C394.252 137.716 395.25 150.024 393.919 156.843C392.589 163.662 390.26 165.824 387.599 166.822C384.938 167.82 383.607 166.489 383.607 166.489C383.607 166.489 377.287 160.501 371.632 160.335C366.696 160.19 362.901 165.619 362.016 167.002C363.067 171.278 364.143 175.962 365.145 177.965C366.642 180.959 369.802 183.786 374.459 183.786C379.116 183.786 384.272 179.961 386.767 177.466C389.262 174.971 393.586 171.478 395.915 166.988C398.243 162.498 396.247 151.188 396.58 148.028Z" fill="#1F2937" stroke="#1F2937" stroke-miterlimit="10" stroke-linecap="round" stroke-linejoin="round"/>
<path d="M379.615 171.479C379.615 171.479 376.122 166.489 372.796 165.658C369.469 164.826 365.977 171.313 367.141 172.477C368.305 173.641 369.968 169.317 373.129 170.648C376.288 171.978 378.118 174.141 379.615 171.479Z" fill="#F3F4F6" stroke="#1F2937" stroke-miterlimit="10" stroke-linecap="round" stroke-linejoin="round"/>
<path d="M359.157 117.923C359.157 117.923 354.167 116.426 351.007 118.089C347.847 119.752 346.35 123.411 346.35 123.411L352.837 123.91L355.831 125.407C355.831 125.407 354.5 125.407 353.835 127.237C353.17 129.067 352.671 131.229 352.671 131.229C352.671 131.229 355 129.898 358.659 129.4C362.318 128.901 369.47 126.739 369.47 126.739L370.302 132.228C370.302 132.228 374.46 129.567 377.787 128.569C381.113 127.571 383.109 125.409 383.109 125.409C383.109 125.409 391.758 128.736 391.591 130.232C391.425 131.729 388.431 135.388 389.429 136.552C390.427 137.716 393.088 140.211 393.088 140.211L403.067 145.866C403.067 145.866 406.726 140.211 408.556 131.23C410.386 122.249 402.069 112.602 395.084 109.941C388.099 107.28 382.942 108.278 378.618 108.444C374.294 108.61 368.306 107.28 368.306 107.28L372.298 111.438C372.298 111.438 368.473 112.935 366.809 113.268C365.146 113.601 362.318 114.432 361.653 114.1C360.988 113.767 358.659 112.271 358.659 112.271C358.659 112.271 357.494 117.258 359.157 117.923Z" fill="#1F2937" stroke="#1F2937" stroke-miterlimit="10" stroke-linecap="round" stroke-linejoin="round"/>
<path d="M399.241 155.013C399.241 155.013 401.736 153.682 403.066 151.687C404.397 149.691 408.222 142.04 403.731 139.878C400.329 138.24 398.075 141.181 397.181 142.704C396.978 144.436 396.74 146.502 396.579 148.028C396.246 151.188 398.242 162.498 395.914 166.989C393.586 171.48 389.261 174.973 386.766 177.467C385.809 178.425 384.457 179.577 382.894 180.635L387.099 181.791C387.099 181.791 388.43 185.949 392.089 190.606C395.748 195.263 398.908 198.257 398.908 198.257C398.908 198.257 399.906 192.269 402.567 178.963C405.228 165.657 403.232 158.006 403.232 158.006L399.241 155.013Z" fill="#F3F4F6" stroke="#1F2937" stroke-miterlimit="10" stroke-linecap="round" stroke-linejoin="round"/>
<path d="M387.099 181.791L392.92 183.454L390.093 187.612C390.093 187.612 387.765 183.787 387.099 181.791Z" fill="#1F2937" stroke="#1F2937" stroke-miterlimit="10" stroke-linecap="round" stroke-linejoin="round"/>
<path d="M422.214 177.334L427.039 297.952L437.846 298.724C437.846 298.724 447.109 259.74 449.811 246.424C452.513 233.108 453.478 224.616 453.285 214.002C453.092 203.388 450.583 181.387 450.583 181.387C450.583 181.387 444.986 171.931 440.162 168.65" fill="#2F80ED"/>
<path d="M422.214 177.334L427.039 297.952L437.846 298.724C437.846 298.724 447.109 259.74 449.811 246.424C452.513 233.108 453.478 224.616 453.285 214.002C453.092 203.388 450.583 181.387 450.583 181.387C450.583 181.387 444.986 171.931 440.162 168.65" stroke="#1F2937" stroke-miterlimit="10" stroke-linecap="round" stroke-linejoin="round"/>
<path d="M444.164 199.889C445.163 196.736 445.759 194.703 445.759 194.703" stroke="#1F2937" stroke-miterlimit="10" stroke-linecap="round" stroke-linejoin="round"/>
<path d="M425.109 247.196C425.109 247.196 429.741 236.389 435.144 224.423C438.087 217.906 440.973 209.67 442.991 203.523" stroke="#1F2937" stroke-miterlimit="10" stroke-linecap="round" stroke-linejoin="round"/>
<path d="M437.945 230.857C437.641 231.687 437.348 232.387 437.074 232.915" stroke="#1F2937" stroke-miterlimit="10" stroke-linecap="round" stroke-linejoin="round"/>
<path d="M443.636 208.791C443.636 208.791 441.255 220.129 439.013 227.597" stroke="#1F2937" stroke-miterlimit="10" stroke-linecap="round" stroke-linejoin="round"/>
<path d="M427.04 287.338L439.97 287.917" stroke="#1F2937" stroke-miterlimit="10" stroke-linecap="round" stroke-linejoin="round"/>
<path d="M427.039 297.952C427.039 297.952 425.53 316.572 425.53 318.181C425.53 319.79 426.818 331.539 427.139 332.505C427.461 333.471 435.669 339.587 436.474 339.587C437.279 339.587 441.785 340.07 442.59 338.782C443.395 337.494 443.717 336.69 442.59 336.368C441.463 336.046 438.405 336.207 438.405 336.207L436.635 335.402C436.635 335.402 443.234 334.758 443.717 334.597C444.2 334.436 446.614 332.827 447.097 331.7C447.58 330.573 446.775 329.286 446.775 329.286C446.775 329.286 449.189 327.033 449.35 326.228C449.511 325.423 449.672 323.17 448.545 323.492C447.418 323.814 445.809 325.584 445.809 325.584H441.785C441.785 325.584 445.97 322.848 446.452 322.043C446.935 321.238 447.579 317.858 447.418 316.893C447.257 315.927 445.165 317.054 444.682 318.02C444.199 318.986 443.394 321.561 443.394 321.561L438.566 322.205L436.957 320.113C436.957 320.113 440.176 310.134 440.176 308.042C440.176 305.95 437.846 298.724 437.846 298.724L427.039 297.952Z" fill="#F3F4F6" stroke="#1F2937" stroke-miterlimit="10" stroke-linecap="round" stroke-linejoin="round"/>
<path d="M432.934 322.366C432.934 322.366 436.475 325.424 437.441 325.746C438.407 326.068 441.786 325.585 441.786 325.585" stroke="#1F2937" stroke-miterlimit="10" stroke-linecap="round" stroke-linejoin="round"/>
<path d="M430.841 325.907C430.841 325.907 436.313 330.735 437.762 330.735C439.21 330.735 446.775 329.287 446.775 329.287" stroke="#1F2937" stroke-miterlimit="10" stroke-linecap="round" stroke-linejoin="round"/>
<path d="M429.715 330.091C429.715 330.091 432.934 333.954 433.9 334.275C434.866 334.596 436.636 335.402 436.636 335.402" stroke="#1F2937" stroke-miterlimit="10" stroke-linecap="round" stroke-linejoin="round"/>
</svg>
