<svg width="500" height="500" viewBox="0 0 500 500" fill="none" xmlns="http://www.w3.org/2000/svg">
<path d="M38.8879 267.6C38.8879 267.6 42.5259 342.185 105.516 390.056C168.506 437.927 254.709 438.873 324.524 441.48C394.34 444.087 447.249 402.882 454.332 342.81C461.414 282.738 407.836 266.796 377.797 199.573C347.758 132.35 349.96 109.887 288.092 69.8608C226.224 29.8348 130.952 58.4628 81.9649 131.744C32.9779 205.026 38.8879 267.6 38.8879 267.6Z" fill="#2F80ED"/>
<path opacity="0.7" d="M38.8879 267.6C38.8879 267.6 42.5259 342.185 105.516 390.056C168.506 437.927 254.709 438.873 324.524 441.48C394.34 444.087 447.249 402.882 454.332 342.81C461.414 282.738 407.836 266.796 377.797 199.573C347.758 132.35 349.96 109.887 288.092 69.8608C226.224 29.8348 130.952 58.4628 81.9649 131.744C32.9779 205.026 38.8879 267.6 38.8879 267.6Z" fill="#F3F4F6"/>
<path d="M420.729 372.863C420.729 372.863 417.327 358.405 419.878 345.648C422.429 332.891 428.383 341.396 435.187 332.891C441.991 324.386 438.589 308.227 446.243 301.424C453.897 294.62 464.953 295.471 467.505 282.714C470.056 269.957 471.757 259.751 476.86 261.452C481.963 263.153 472.608 278.461 472.608 287.817C472.608 297.173 477.711 303.126 474.309 312.481C470.907 321.836 456.449 318.434 456.449 329.49C456.449 340.546 462.402 351.602 457.299 359.257C452.196 366.911 438.588 368.612 436.888 372.865C435.187 377.117 430.935 384.772 426.682 384.772C422.43 384.77 420.729 372.863 420.729 372.863Z" fill="#6B7280"/>
<path d="M417.962 373.015C418.812 370.463 417.112 348.351 409.457 344.099C401.803 339.847 393.298 341.548 389.046 333.893C384.794 326.239 384.794 322.837 380.541 321.986C376.289 321.136 355.877 317.734 358.429 321.986C360.981 326.238 376.289 319.435 376.289 327.939C376.289 336.444 374.588 350.051 379.691 353.453C384.794 356.855 398.401 356.004 397.551 363.659C396.701 371.313 394.149 373.865 398.401 376.416C402.653 378.967 414.56 390.024 416.261 381.519C417.962 373.015 417.962 373.015 417.962 373.015Z" fill="#6B7280"/>
<path d="M427.427 391.766C427.427 391.766 423.465 379.385 434.361 356.604C445.256 333.823 453.18 316.489 458.133 307.575" stroke="#1F2937" stroke-width="1.2565" stroke-miterlimit="10"/>
<path d="M418.512 393.747C418.512 393.747 417.026 387.804 412.074 371.461C407.122 355.118 401.179 350.661 392.759 345.213C384.34 339.765 383.845 330.851 382.359 328.375" stroke="#1F2937" stroke-width="1.2565" stroke-miterlimit="10"/>
<path d="M439.313 384.833C439.313 384.833 440.304 375.919 448.227 373.442C456.151 370.966 463.58 371.956 465.065 366.509C466.551 361.061 466.551 355.614 470.017 352.642C473.484 349.671 477.941 348.185 478.436 349.671C478.931 351.157 473.484 352.147 473.484 357.1C473.484 362.053 480.913 374.433 470.017 379.386C459.122 384.339 450.207 379.881 446.245 383.348C442.283 386.815 439.807 389.291 439.807 389.291L439.313 384.833Z" fill="#6B7280"/>
<path d="M438.322 393.747C438.322 393.747 441.789 380.871 450.208 377.899C458.627 374.928 468.037 381.366 471.999 375.423C475.961 369.48 472.99 363.537 472.494 359.575" stroke="#1F2937" stroke-width="1.2565" stroke-miterlimit="10"/>
<path d="M443.893 391.767H413.188C411.821 391.767 410.712 392.876 410.712 394.243C410.712 395.611 411.821 396.719 413.188 396.719H413.436L415.827 402.989C416.207 403.985 417.162 404.643 418.227 404.643H438.856C439.922 404.643 440.877 403.985 441.256 402.989L443.646 396.719H443.894C445.262 396.719 446.37 395.61 446.37 394.243C446.37 392.876 445.261 391.767 443.893 391.767Z" fill="#1F2937"/>
<path d="M454.211 278.776H307.333C304.719 278.776 302.6 276.657 302.6 274.043V255.47C302.6 252.856 304.719 250.736 307.334 250.736H454.212C456.826 250.736 458.946 252.855 458.946 255.47V274.043C458.945 276.657 456.826 278.776 454.211 278.776Z" fill="#2F80ED"/>
<path d="M314.675 268.614C314.53 268.489 314.458 268.316 314.458 268.095V258.995C314.458 258.774 314.533 258.6 314.683 258.472C314.833 258.344 315.008 258.281 315.209 258.281C315.41 258.281 315.583 258.344 315.728 258.469C315.873 258.594 315.945 258.77 315.945 258.996V268.096C315.945 268.322 315.871 268.496 315.724 268.619C315.577 268.742 315.4 268.803 315.194 268.803C314.992 268.802 314.819 268.739 314.675 268.614Z" fill="#1F2937"/>
<path d="M318.735 268.644C318.607 268.533 318.544 268.378 318.544 268.176V262.124C318.544 261.928 318.61 261.774 318.743 261.664C318.876 261.553 319.033 261.498 319.214 261.498C319.395 261.498 319.551 261.551 319.681 261.656C319.811 261.761 319.876 261.91 319.876 262.101V262.742C320.062 262.295 320.368 261.952 320.793 261.711C321.218 261.471 321.712 261.35 322.277 261.35C323.087 261.35 323.732 261.586 324.213 262.057C324.694 262.528 324.934 263.242 324.934 264.2V268.176C324.934 268.377 324.869 268.533 324.739 268.644C324.609 268.754 324.453 268.81 324.272 268.81C324.09 268.81 323.934 268.755 323.804 268.644C323.674 268.533 323.609 268.378 323.609 268.176V264.186C323.609 263.558 323.463 263.079 323.171 262.75C322.879 262.421 322.468 262.257 321.938 262.257C321.374 262.257 320.897 262.458 320.51 262.861C320.122 263.263 319.911 263.811 319.877 264.503V268.177C319.877 268.373 319.809 268.528 319.674 268.641C319.539 268.754 319.381 268.81 319.199 268.81C319.017 268.81 318.863 268.755 318.735 268.644Z" fill="#1F2937"/>
<path d="M328.122 268.363C327.788 267.997 327.621 267.434 327.621 266.673V262.432H326.723C326.561 262.432 326.437 262.393 326.351 262.314C326.265 262.235 326.222 262.13 326.222 261.997C326.222 261.869 326.264 261.765 326.347 261.684C326.43 261.603 326.553 261.563 326.715 261.563H327.621L327.798 259.472C327.808 259.315 327.878 259.18 328.008 259.067C328.138 258.954 328.282 258.898 328.439 258.898C328.586 258.898 328.709 258.944 328.807 259.034C328.905 259.125 328.954 259.256 328.954 259.428V261.563H330.309C330.471 261.563 330.592 261.605 330.673 261.688C330.754 261.771 330.795 261.879 330.795 262.012C330.795 262.292 330.633 262.432 330.309 262.432H328.954V266.445C328.954 266.95 329.025 267.315 329.168 267.538C329.31 267.761 329.536 267.873 329.845 267.873H329.926L330.427 267.851H330.471C330.633 267.851 330.761 267.903 330.854 268.006C330.947 268.109 330.994 268.229 330.994 268.367C330.994 268.49 330.967 268.589 330.913 268.665C330.859 268.741 330.777 268.796 330.666 268.831C330.555 268.865 330.445 268.887 330.335 268.897C330.225 268.907 330.081 268.912 329.904 268.912H329.47C328.905 268.912 328.456 268.729 328.122 268.363Z" fill="#1F2937"/>
<path d="M333.865 268.486C333.32 268.187 332.887 267.746 332.566 267.164C332.244 266.582 332.084 265.904 332.084 265.128C332.084 264.446 332.219 263.822 332.489 263.258C332.759 262.694 333.166 262.235 333.711 261.881C334.256 261.528 334.891 261.351 335.618 261.351C336.192 261.351 336.695 261.447 337.127 261.638C337.559 261.829 337.903 262.093 338.158 262.43C338.413 262.766 338.605 263.142 338.732 263.556C338.86 263.971 338.931 264.426 338.946 264.922C338.946 265.064 338.907 265.182 338.828 265.275C338.749 265.368 338.632 265.415 338.475 265.415H333.424C333.434 266.259 333.66 266.899 334.101 267.333C334.543 267.767 335.11 267.99 335.802 267.999C336.239 267.999 336.631 267.92 336.98 267.763C337.329 267.606 337.679 267.392 338.033 267.122C338.121 267.053 338.215 267.019 338.313 267.019C338.431 267.019 338.53 267.064 338.611 267.155C338.692 267.246 338.733 267.353 338.733 267.475C338.733 267.632 338.664 267.772 338.527 267.895C337.752 268.592 336.814 268.941 335.715 268.941C335.026 268.938 334.41 268.785 333.865 268.486ZM337.782 264.599C337.738 263.912 337.544 263.35 337.2 262.913C336.856 262.476 336.353 262.258 335.691 262.258C335.347 262.258 335.036 262.324 334.756 262.457C334.476 262.59 334.247 262.767 334.068 262.991C333.889 263.214 333.746 263.462 333.641 263.735C333.535 264.007 333.47 264.296 333.446 264.6H337.782V264.599Z" fill="#1F2937"/>
<path d="M340.985 268.648C340.857 268.54 340.794 268.388 340.794 268.192V262.118C340.794 261.922 340.86 261.771 340.993 261.665C341.126 261.559 341.283 261.507 341.464 261.507C341.646 261.507 341.802 261.56 341.931 261.665C342.061 261.77 342.126 261.916 342.126 262.103L342.118 262.987C342.241 262.531 342.488 262.149 342.858 261.842C343.229 261.535 343.674 261.382 344.194 261.382C344.351 261.382 344.475 261.441 344.566 261.559C344.657 261.677 344.702 261.814 344.702 261.971C344.702 262.118 344.66 262.245 344.577 262.35C344.494 262.455 344.373 262.508 344.216 262.508C343.553 262.508 343.039 262.68 342.674 263.023C342.308 263.367 342.126 263.825 342.126 264.4V268.192C342.126 268.388 342.058 268.54 341.923 268.648C341.788 268.756 341.63 268.81 341.448 268.81C341.267 268.81 341.112 268.756 340.985 268.648Z" fill="#1F2937"/>
<path d="M346.33 268.644C346.202 268.533 346.139 268.378 346.139 268.176V262.124C346.139 261.928 346.205 261.774 346.338 261.664C346.471 261.553 346.628 261.498 346.809 261.498C346.991 261.498 347.146 261.551 347.276 261.656C347.406 261.761 347.471 261.91 347.471 262.101V262.742C347.657 262.295 347.963 261.952 348.388 261.711C348.813 261.471 349.307 261.35 349.872 261.35C350.682 261.35 351.327 261.586 351.808 262.057C352.289 262.528 352.529 263.242 352.529 264.2V268.176C352.529 268.377 352.464 268.533 352.334 268.644C352.204 268.754 352.048 268.81 351.866 268.81C351.685 268.81 351.529 268.755 351.399 268.644C351.269 268.533 351.204 268.378 351.204 268.176V264.186C351.204 263.558 351.058 263.079 350.766 262.75C350.474 262.421 350.063 262.257 349.533 262.257C348.969 262.257 348.493 262.458 348.105 262.861C347.717 263.263 347.506 263.811 347.472 264.503V268.177C347.472 268.373 347.404 268.528 347.27 268.641C347.135 268.754 346.977 268.81 346.795 268.81C346.612 268.81 346.458 268.755 346.33 268.644Z" fill="#1F2937"/>
<path d="M354.79 268.39C354.309 268.022 354.069 267.499 354.069 266.822C354.069 266.542 354.098 266.297 354.157 266.086C354.216 265.875 354.299 265.69 354.407 265.53C354.515 265.371 354.667 265.236 354.864 265.125C355.06 265.014 355.276 264.924 355.512 264.852C355.748 264.781 356.047 264.727 356.41 264.69C356.773 264.653 357.147 264.627 357.533 264.613C357.918 264.598 358.383 264.591 358.928 264.591V263.788C358.928 263.263 358.788 262.875 358.508 262.625C358.228 262.375 357.838 262.249 357.337 262.249C357.038 262.249 356.738 262.281 356.439 262.345C356.14 262.409 355.904 262.473 355.732 262.536C355.56 262.6 355.349 262.688 355.099 262.801C355.05 262.826 354.991 262.838 354.922 262.838C354.794 262.838 354.684 262.785 354.591 262.68C354.498 262.575 354.451 262.458 354.451 262.33C354.451 262.183 354.52 262.07 354.657 261.991C355.418 261.564 356.323 261.35 357.374 261.35C358.272 261.35 358.976 261.559 359.483 261.976C359.991 262.393 360.245 263.036 360.245 263.905V268.197C360.245 268.388 360.177 268.539 360.042 268.65C359.907 268.76 359.751 268.816 359.575 268.816C359.398 268.816 359.247 268.763 359.122 268.658C358.997 268.552 358.934 268.404 358.934 268.212V267.505C358.478 268.462 357.722 268.941 356.666 268.941C355.896 268.943 355.271 268.759 354.79 268.39ZM358.29 267.36C358.714 266.894 358.927 266.3 358.927 265.578V265.357C358.318 265.357 357.823 265.368 357.44 265.39C357.057 265.412 356.718 265.451 356.424 265.508C356.129 265.564 355.909 265.648 355.761 265.758C355.614 265.869 355.505 266.002 355.433 266.159C355.362 266.316 355.326 266.517 355.326 266.763C355.326 267.21 355.459 267.537 355.724 267.746C355.989 267.955 356.35 268.059 356.806 268.059C357.371 268.059 357.866 267.826 358.29 267.36Z" fill="#1F2937"/>
<path d="M362.69 268.637C362.562 268.522 362.499 268.356 362.499 268.14V258.959C362.499 258.753 362.567 258.591 362.701 258.473C362.836 258.355 362.994 258.296 363.176 258.296C363.353 258.296 363.506 258.355 363.636 258.473C363.766 258.591 363.831 258.753 363.831 258.959V268.14C363.831 268.346 363.764 268.509 363.629 268.63C363.494 268.75 363.336 268.81 363.154 268.81C362.972 268.81 362.817 268.752 362.69 268.637Z" fill="#1F2937"/>
<path d="M370.302 267.706C370.243 267.652 370.214 267.578 370.214 267.485C370.214 267.328 370.289 267.166 370.438 266.999C370.588 266.832 370.739 266.749 370.891 266.749C370.96 266.749 371.021 266.769 371.075 266.808C371.91 267.456 372.876 267.78 373.976 267.78C374.693 267.78 375.278 267.638 375.732 267.353C376.186 267.068 376.413 266.656 376.413 266.116C376.413 265.856 376.38 265.634 376.314 265.45C376.248 265.266 376.137 265.105 375.983 264.968C375.828 264.831 375.653 264.715 375.457 264.622C375.261 264.529 375.005 264.428 374.691 264.32L372.578 263.613C371.798 263.348 371.216 263.014 370.833 262.612C370.45 262.21 370.259 261.655 370.259 260.948C370.259 260.379 370.425 259.878 370.756 259.446C371.087 259.014 371.534 258.688 372.096 258.467C372.658 258.246 373.292 258.136 373.999 258.136C374.691 258.136 375.352 258.248 375.983 258.471C376.614 258.694 377.096 258.956 377.43 259.255C377.543 259.353 377.599 259.476 377.599 259.623C377.599 259.775 377.543 259.913 377.43 260.035C377.317 260.158 377.182 260.219 377.025 260.219C376.912 260.219 376.804 260.185 376.701 260.116C376.402 259.92 376.025 259.739 375.571 259.575C375.117 259.41 374.632 259.328 374.117 259.328C373.381 259.328 372.792 259.463 372.35 259.733C371.908 260.003 371.687 260.393 371.687 260.904C371.687 261.287 371.801 261.592 372.029 261.821C372.257 262.049 372.622 262.247 373.122 262.413L375.242 263.098C375.669 263.235 376.031 263.38 376.328 263.532C376.625 263.684 376.895 263.869 377.138 264.088C377.381 264.307 377.563 264.568 377.683 264.872C377.803 265.176 377.864 265.527 377.864 265.925C377.864 266.887 377.509 267.636 376.8 268.17C376.091 268.705 375.128 268.973 373.91 268.973C372.413 268.972 371.211 268.55 370.302 267.706Z" fill="#1F2937"/>
<path d="M381.14 268.486C380.595 268.187 380.162 267.746 379.84 267.164C379.519 266.582 379.358 265.904 379.358 265.128C379.358 264.446 379.493 263.822 379.763 263.258C380.033 262.694 380.44 262.235 380.985 261.881C381.53 261.528 382.165 261.351 382.892 261.351C383.466 261.351 383.969 261.447 384.401 261.638C384.833 261.829 385.176 262.093 385.432 262.43C385.687 262.766 385.879 263.142 386.006 263.556C386.134 263.971 386.205 264.426 386.22 264.922C386.22 265.064 386.181 265.182 386.102 265.275C386.024 265.368 385.906 265.415 385.749 265.415H380.698C380.708 266.259 380.934 266.899 381.375 267.333C381.817 267.767 382.384 267.99 383.076 267.999C383.513 267.999 383.906 267.92 384.254 267.763C384.603 267.606 384.954 267.392 385.307 267.122C385.395 267.053 385.488 267.019 385.587 267.019C385.705 267.019 385.804 267.064 385.885 267.155C385.966 267.246 386.007 267.353 386.007 267.475C386.007 267.632 385.938 267.772 385.801 267.895C385.025 268.592 384.088 268.941 382.988 268.941C382.301 268.938 381.685 268.785 381.14 268.486ZM385.057 264.599C385.013 263.912 384.819 263.35 384.475 262.913C384.131 262.476 383.628 262.258 382.966 262.258C382.622 262.258 382.311 262.324 382.031 262.457C381.751 262.59 381.522 262.767 381.342 262.991C381.163 263.214 381.021 263.462 380.915 263.735C380.81 264.007 380.744 264.296 380.72 264.6H385.057V264.599Z" fill="#1F2937"/>
<path d="M388.26 268.648C388.132 268.54 388.069 268.388 388.069 268.192V262.118C388.069 261.922 388.135 261.771 388.268 261.665C388.401 261.559 388.558 261.507 388.739 261.507C388.921 261.507 389.076 261.56 389.207 261.665C389.337 261.77 389.402 261.916 389.402 262.103L389.395 262.987C389.518 262.531 389.764 262.149 390.135 261.842C390.506 261.535 390.951 261.382 391.471 261.382C391.628 261.382 391.752 261.441 391.843 261.559C391.934 261.677 391.979 261.814 391.979 261.971C391.979 262.118 391.937 262.245 391.854 262.35C391.771 262.455 391.65 262.508 391.493 262.508C390.83 262.508 390.316 262.68 389.951 263.023C389.585 263.367 389.402 263.825 389.402 264.4V268.192C389.402 268.388 389.335 268.54 389.2 268.648C389.065 268.756 388.907 268.81 388.725 268.81C388.542 268.81 388.387 268.756 388.26 268.648Z" fill="#1F2937"/>
<path d="M395.486 268.593C395.327 268.443 395.171 268.187 395.018 267.824L392.721 262.324C392.691 262.26 392.677 262.192 392.677 262.118C392.677 261.951 392.747 261.805 392.887 261.68C393.027 261.555 393.183 261.492 393.354 261.492C393.609 261.492 393.791 261.632 393.899 261.912L396.152 267.456L398.398 261.912C398.506 261.632 398.688 261.492 398.943 261.492C399.115 261.492 399.27 261.555 399.41 261.68C399.55 261.805 399.62 261.951 399.62 262.118C399.62 262.192 399.605 262.26 399.576 262.324L397.279 267.824C397.127 268.187 396.971 268.444 396.812 268.593C396.652 268.743 396.433 268.818 396.153 268.818C395.868 268.817 395.646 268.742 395.486 268.593Z" fill="#1F2937"/>
<path d="M402.388 268.486C401.843 268.187 401.41 267.746 401.089 267.164C400.767 266.582 400.607 265.904 400.607 265.128C400.607 264.446 400.742 263.822 401.012 263.258C401.282 262.694 401.689 262.235 402.234 261.881C402.779 261.528 403.415 261.351 404.141 261.351C404.715 261.351 405.218 261.447 405.65 261.638C406.082 261.829 406.426 262.093 406.681 262.43C406.936 262.766 407.128 263.142 407.255 263.556C407.383 263.971 407.454 264.426 407.469 264.922C407.469 265.064 407.43 265.182 407.351 265.275C407.272 265.368 407.155 265.415 406.997 265.415H401.946C401.956 266.259 402.182 266.899 402.623 267.333C403.065 267.767 403.632 267.99 404.324 267.999C404.761 267.999 405.153 267.92 405.502 267.763C405.85 267.606 406.201 267.392 406.555 267.122C406.643 267.053 406.737 267.019 406.835 267.019C406.953 267.019 407.052 267.064 407.133 267.155C407.214 267.246 407.255 267.353 407.255 267.475C407.255 267.632 407.186 267.772 407.049 267.895C406.273 268.592 405.336 268.941 404.236 268.941C403.549 268.938 402.933 268.785 402.388 268.486ZM406.305 264.599C406.261 263.912 406.067 263.35 405.723 262.913C405.379 262.476 404.876 262.258 404.214 262.258C403.87 262.258 403.559 262.324 403.279 262.457C402.999 262.59 402.77 262.767 402.591 262.991C402.412 263.214 402.269 263.462 402.164 263.735C402.058 264.007 401.993 264.296 401.969 264.6H406.305V264.599Z" fill="#1F2937"/>
<path d="M409.508 268.648C409.38 268.54 409.317 268.388 409.317 268.192V262.118C409.317 261.922 409.383 261.771 409.516 261.665C409.649 261.559 409.806 261.507 409.987 261.507C410.169 261.507 410.324 261.56 410.454 261.665C410.584 261.77 410.649 261.916 410.649 262.103L410.642 262.987C410.765 262.531 411.011 262.149 411.382 261.842C411.753 261.535 412.198 261.382 412.718 261.382C412.875 261.382 412.999 261.441 413.09 261.559C413.181 261.677 413.226 261.814 413.226 261.971C413.226 262.118 413.184 262.245 413.101 262.35C413.018 262.455 412.897 262.508 412.74 262.508C412.077 262.508 411.563 262.68 411.198 263.023C410.832 263.367 410.65 263.825 410.65 264.4V268.192C410.65 268.388 410.582 268.54 410.448 268.648C410.313 268.756 410.155 268.81 409.973 268.81C409.79 268.81 409.636 268.756 409.508 268.648Z" fill="#1F2937"/>
<path d="M419.348 268.593C419.198 268.448 419.123 268.28 419.123 268.089V259.011C419.123 258.82 419.191 258.652 419.326 258.507C419.461 258.362 419.627 258.29 419.823 258.29H425.279C425.465 258.29 425.61 258.348 425.713 258.463C425.816 258.578 425.867 258.717 425.867 258.879C425.867 259.041 425.816 259.181 425.713 259.299C425.61 259.417 425.465 259.476 425.279 259.476H420.611V262.826H425.029C425.22 262.826 425.368 262.882 425.471 262.995C425.574 263.108 425.626 263.243 425.626 263.4C425.626 263.557 425.573 263.693 425.468 263.809C425.363 263.924 425.216 263.982 425.03 263.982H420.612V267.627H425.471C425.657 267.627 425.802 267.686 425.905 267.804C426.008 267.922 426.06 268.062 426.06 268.224C426.06 268.386 426.008 268.525 425.905 268.64C425.802 268.755 425.657 268.813 425.471 268.813H419.861C419.668 268.81 419.498 268.738 419.348 268.593Z" fill="#1F2937"/>
<path d="M428.283 268.648C428.155 268.54 428.092 268.388 428.092 268.192V262.118C428.092 261.922 428.158 261.771 428.291 261.665C428.424 261.559 428.581 261.507 428.762 261.507C428.944 261.507 429.1 261.56 429.229 261.665C429.359 261.77 429.424 261.916 429.424 262.103L429.417 262.987C429.54 262.531 429.786 262.149 430.157 261.842C430.528 261.535 430.973 261.382 431.493 261.382C431.65 261.382 431.774 261.441 431.865 261.559C431.956 261.677 432.001 261.814 432.001 261.971C432.001 262.118 431.959 262.245 431.876 262.35C431.793 262.455 431.672 262.508 431.515 262.508C430.852 262.508 430.338 262.68 429.972 263.023C429.606 263.367 429.424 263.825 429.424 264.4V268.192C429.424 268.388 429.356 268.54 429.221 268.648C429.086 268.756 428.928 268.81 428.746 268.81C428.565 268.81 428.41 268.756 428.283 268.648Z" fill="#1F2937"/>
<path d="M433.642 268.648C433.514 268.54 433.451 268.388 433.451 268.192V262.118C433.451 261.922 433.517 261.771 433.65 261.665C433.782 261.559 433.939 261.507 434.121 261.507C434.303 261.507 434.458 261.56 434.588 261.665C434.718 261.77 434.783 261.916 434.783 262.103L434.776 262.987C434.899 262.531 435.145 262.149 435.516 261.842C435.887 261.535 436.332 261.382 436.852 261.382C437.009 261.382 437.133 261.441 437.224 261.559C437.315 261.677 437.36 261.814 437.36 261.971C437.36 262.118 437.318 262.245 437.235 262.35C437.152 262.455 437.031 262.508 436.874 262.508C436.211 262.508 435.697 262.68 435.331 263.023C434.965 263.366 434.783 263.825 434.783 264.4V268.192C434.783 268.388 434.715 268.54 434.58 268.648C434.445 268.756 434.287 268.81 434.105 268.81C433.925 268.81 433.77 268.756 433.642 268.648Z" fill="#1F2937"/>
<path d="M439.293 267.875C438.628 267.163 438.295 266.255 438.295 265.151C438.295 264.042 438.628 263.131 439.293 262.419C439.958 261.707 440.855 261.351 441.984 261.351C443.113 261.351 444.01 261.706 444.675 262.415C445.34 263.124 445.673 264.036 445.673 265.15C445.673 266.254 445.342 267.162 444.679 267.874C444.016 268.586 443.118 268.942 441.984 268.942C440.855 268.943 439.958 268.587 439.293 267.875ZM443.725 267.26C444.14 266.747 444.347 266.044 444.347 265.151C444.347 264.263 444.137 263.558 443.718 263.038C443.298 262.518 442.72 262.258 441.984 262.258C441.243 262.258 440.664 262.517 440.246 263.035C439.829 263.553 439.62 264.258 439.62 265.152C439.62 266.036 439.827 266.736 440.242 267.254C440.657 267.772 441.232 268.031 441.969 268.031C442.725 268.03 443.311 267.773 443.725 267.26Z" fill="#1F2937"/>
<path d="M447.528 268.648C447.4 268.54 447.337 268.388 447.337 268.192V262.118C447.337 261.922 447.403 261.771 447.536 261.665C447.668 261.559 447.826 261.507 448.007 261.507C448.189 261.507 448.344 261.56 448.474 261.665C448.604 261.77 448.669 261.916 448.669 262.103L448.662 262.987C448.785 262.531 449.031 262.149 449.402 261.842C449.773 261.535 450.218 261.382 450.738 261.382C450.895 261.382 451.019 261.441 451.11 261.559C451.201 261.677 451.246 261.814 451.246 261.971C451.246 262.118 451.204 262.245 451.121 262.35C451.038 262.455 450.917 262.508 450.76 262.508C450.097 262.508 449.583 262.68 449.217 263.023C448.851 263.367 448.669 263.825 448.669 264.4V268.192C448.669 268.388 448.601 268.54 448.467 268.648C448.332 268.756 448.174 268.81 447.992 268.81C447.81 268.81 447.656 268.756 447.528 268.648Z" fill="#1F2937"/>
<path d="M316.796 235.122C315.987 234.388 315.584 233.47 315.584 232.369C315.584 231.219 316.006 230.16 316.85 229.193C317.695 228.226 318.643 227.743 319.696 227.743C320.038 227.743 320.382 227.804 320.724 227.927C321.066 228.05 321.398 228.234 321.716 228.478C325.02 231.048 328.545 232.332 332.29 232.332C335.154 232.332 337.357 231.58 338.899 230.074C340.442 228.569 341.212 226.347 341.212 223.411C341.212 220.596 340.386 218.4 338.733 216.82C337.081 215.241 335.006 214.452 332.511 214.452C329.647 214.452 326.881 215.456 324.213 217.463C323.722 217.879 323.037 218.086 322.156 218.086C320.81 218.086 319.561 217.633 318.411 216.728C317.26 215.822 316.686 214.598 316.686 213.057V192.203C316.686 190.123 317.187 188.703 318.192 187.944C319.194 187.185 320.872 186.805 323.222 186.805H345.324C346.523 186.805 347.484 187.173 348.207 187.907C348.928 188.641 349.289 189.645 349.289 190.918C349.289 192.191 348.91 193.189 348.151 193.91C347.391 194.632 346.328 194.993 344.957 194.993H326.049L325.865 208.982L326.967 208.321C327.701 207.88 328.912 207.439 330.601 206.999C332.29 206.558 334.076 206.338 335.961 206.338C340.759 206.338 344.668 207.844 347.692 210.854C350.714 213.865 352.226 217.99 352.226 223.227C352.226 226.777 351.357 229.898 349.62 232.59C347.881 235.282 345.531 237.326 342.57 238.722C339.608 240.117 336.279 240.814 332.584 240.814C326.562 240.813 321.299 238.917 316.796 235.122Z" fill="#1F2937"/>
<path d="M371.079 239.564C368.717 238.585 366.771 237.257 365.242 235.58C363.712 233.904 362.445 231.879 361.442 229.505C360.438 227.131 359.728 224.627 359.313 221.996C358.896 219.365 358.688 216.519 358.688 213.459C358.688 210.448 358.895 207.646 359.313 205.052C359.728 202.457 360.432 199.973 361.423 197.598C362.415 195.224 363.669 193.204 365.187 191.54C366.704 189.876 368.65 188.548 371.024 187.556C373.398 186.565 376.091 186.069 379.102 186.069C382.063 186.069 384.714 186.553 387.051 187.519C389.388 188.487 391.321 189.796 392.852 191.448C394.382 193.1 395.655 195.108 396.671 197.469C397.686 199.832 398.409 202.322 398.837 204.941C399.265 207.56 399.48 210.4 399.48 213.459C399.48 216.495 399.271 219.328 398.855 221.959C398.439 224.59 397.729 227.093 396.726 229.468C395.722 231.842 394.455 233.867 392.926 235.543C391.396 237.22 389.456 238.554 387.107 239.546C384.757 240.538 382.088 241.033 379.103 241.033C376.115 241.033 373.441 240.542 371.079 239.564ZM383.654 231.027C384.877 230.06 385.789 228.648 386.389 226.786C386.989 224.927 387.405 222.956 387.637 220.875C387.87 218.795 387.987 216.323 387.987 213.459C387.987 211.207 387.926 209.231 387.803 207.53C387.68 205.829 387.43 204.128 387.051 202.427C386.671 200.726 386.163 199.331 385.527 198.241C384.89 197.152 384.034 196.271 382.956 195.597C381.879 194.925 380.594 194.588 379.102 194.588C377.854 194.588 376.752 194.808 375.797 195.249C374.842 195.689 374.047 196.345 373.41 197.214C372.773 198.083 372.241 199.062 371.814 200.151C371.384 201.24 371.055 202.531 370.823 204.024C370.59 205.517 370.43 206.998 370.346 208.467C370.26 209.936 370.217 211.6 370.217 213.46C370.217 215.32 370.26 216.991 370.346 218.471C370.431 219.952 370.59 221.445 370.823 222.951C371.055 224.456 371.385 225.76 371.814 226.861C372.241 227.963 372.774 228.948 373.41 229.817C374.047 230.686 374.842 231.347 375.797 231.8C376.752 232.253 377.854 232.478 379.102 232.478C380.913 232.478 382.429 231.994 383.654 231.027Z" fill="#1F2937"/>
<path d="M417.561 239.564C415.199 238.585 413.253 237.257 411.724 235.58C410.194 233.904 408.927 231.879 407.924 229.505C406.92 227.131 406.21 224.627 405.795 221.996C405.378 219.365 405.171 216.519 405.171 213.459C405.171 210.448 405.378 207.646 405.795 205.052C406.21 202.457 406.914 199.973 407.906 197.598C408.898 195.224 410.152 193.204 411.669 191.54C413.186 189.876 415.132 188.548 417.506 187.556C419.88 186.565 422.573 186.069 425.584 186.069C428.545 186.069 431.195 186.553 433.533 187.519C435.869 188.487 437.803 189.796 439.333 191.448C440.863 193.1 442.136 195.108 443.152 197.469C444.167 199.832 444.889 202.322 445.318 204.941C445.746 207.56 445.961 210.4 445.961 213.459C445.961 216.495 445.752 219.328 445.336 221.959C444.92 224.59 444.21 227.093 443.207 229.468C442.203 231.842 440.936 233.867 439.406 235.543C437.876 237.22 435.936 238.554 433.587 239.546C431.237 240.538 428.568 241.033 425.583 241.033C422.597 241.033 419.923 240.542 417.561 239.564ZM430.136 231.027C431.359 230.06 432.271 228.648 432.871 226.786C433.471 224.927 433.887 222.956 434.119 220.875C434.352 218.795 434.469 216.323 434.469 213.459C434.469 211.207 434.408 209.231 434.285 207.53C434.162 205.829 433.912 204.128 433.533 202.427C433.153 200.726 432.645 199.331 432.009 198.241C431.372 197.152 430.516 196.271 429.438 195.597C428.361 194.925 427.076 194.588 425.584 194.588C424.336 194.588 423.234 194.808 422.279 195.249C421.324 195.689 420.529 196.345 419.892 197.214C419.255 198.083 418.723 199.062 418.296 200.151C417.866 201.24 417.536 202.531 417.304 204.024C417.071 205.517 416.911 206.998 416.827 208.467C416.741 209.936 416.698 211.6 416.698 213.46C416.698 215.32 416.741 216.991 416.827 218.471C416.912 219.952 417.071 221.445 417.304 222.951C417.536 224.456 417.866 225.76 418.296 226.861C418.723 227.963 419.256 228.948 419.892 229.817C420.529 230.686 421.324 231.347 422.279 231.8C423.234 232.253 424.336 232.478 425.584 232.478C427.395 232.478 428.911 231.994 430.136 231.027Z" fill="#1F2937"/>
<path d="M153.006 338.543C153.006 338.543 162.522 336.657 170.689 342.94C178.856 349.223 185.072 365.194 188.281 387.547C191.49 409.901 193.307 419.589 212.155 422.73C231.003 425.871 276.239 424.615 303.254 423.987C330.27 423.359 329.013 398.228 306.395 395.715C283.777 393.202 268.128 399.238 244.539 394.021C220.95 388.804 265.557 381.893 299.484 386.919C333.411 391.945 348.489 393.202 366.709 391.317" stroke="#1F2937" stroke-width="2.5131" stroke-miterlimit="10" stroke-linecap="round" stroke-linejoin="round"/>
<path d="M153.006 305.096C153.006 305.096 171.317 305.244 176.344 324.092C181.37 342.94 183.255 369.328 183.883 390.061C184.511 410.794 185.14 428.385 209.014 433.412C232.888 438.438 297.6 436.553 315.192 432.784C332.784 429.014 352.26 412.051 337.81 408.281C323.36 404.511 303.255 408.281 310.794 413.307C318.333 418.333 338.438 417.077 362.312 413.935" stroke="#1F2937" stroke-width="2.5131" stroke-miterlimit="10" stroke-linecap="round" stroke-linejoin="round"/>
<path d="M156.761 370.685C156.761 370.685 167.947 369.712 172.324 382.357C176.701 395.002 171.351 397.92 173.783 404.243C176.215 410.566 191.559 404.662 191.488 409.9C191.424 414.68 185.362 416.025 150.438 413.97C104.777 411.282 74.5668 418.347 76.9988 422.725C79.4308 427.102 115.907 423.698 107.153 430.507C98.3988 437.316 76.9988 429.534 60.4628 429.048C43.9268 428.562 41.0088 432.453 41.0088 432.453" stroke="#1F2937" stroke-width="2.5131" stroke-miterlimit="10" stroke-linecap="round" stroke-linejoin="round"/>
<path d="M158.117 192.045H48.1708C46.2048 192.045 44.6108 193.639 44.6108 195.605V403.885C44.6108 405.851 46.2048 407.445 48.1708 407.445H158.117C160.083 407.445 161.677 405.851 161.677 403.885V195.605C161.676 193.639 160.082 192.045 158.117 192.045Z" fill="#1F2937" stroke="#1F2937" stroke-width="1.2565" stroke-miterlimit="10" stroke-linecap="round" stroke-linejoin="round"/>
<path d="M158.822 224.313H47.4087V306.826H158.822V224.313Z" fill="#6B7280"/>
<path d="M158.822 320.229H47.4087V402.742H158.822V320.229Z" fill="#6B7280"/>
<path d="M145 330.283H81.7539V394.785H145V330.283Z" fill="#2F80ED" stroke="#1F2937" stroke-width="1.2565" stroke-miterlimit="10" stroke-linecap="round" stroke-linejoin="round"/>
<path d="M145 233.529H81.7539V249.445H145V233.529Z" fill="#2F80ED" stroke="#1F2937" stroke-width="1.2565" stroke-miterlimit="10" stroke-linecap="round" stroke-linejoin="round"/>
<path d="M145 264.104H81.7539V280.02H145V264.104Z" fill="#2F80ED" stroke="#1F2937" stroke-width="1.2565" stroke-miterlimit="10" stroke-linecap="round" stroke-linejoin="round"/>
<path d="M142.884 226.161L141.662 229.506H85.6311L84.4091 226.161H72.5391V240.878H84.4091L85.6311 237.533H141.662L142.884 240.878H156.325V226.161H142.884Z" fill="#1F2937" stroke="#1F2937" stroke-width="1.2565" stroke-miterlimit="10" stroke-linecap="round" stroke-linejoin="round"/>
<path d="M142.884 242.216L141.662 245.56H85.6311L84.4091 242.216H72.5391V256.932H84.4091L85.6311 253.588H141.662L142.884 256.932H156.325V242.216H142.884Z" fill="#1F2937" stroke="#1F2937" stroke-width="1.2565" stroke-miterlimit="10" stroke-linecap="round" stroke-linejoin="round"/>
<path d="M142.884 258.27L141.662 261.615H85.6311L84.4091 258.27H72.5391V272.987H84.4091L85.6311 269.642H141.662L142.884 272.987H156.325V258.27H142.884Z" fill="#1F2937" stroke="#1F2937" stroke-width="1.2565" stroke-miterlimit="10" stroke-linecap="round" stroke-linejoin="round"/>
<path d="M142.884 274.325L141.662 277.67H85.6311L84.4091 274.325H72.5391V289.042H84.4091L85.6311 285.697H141.662L142.884 289.042H156.325V274.325H142.884Z" fill="#1F2937" stroke="#1F2937" stroke-width="1.2565" stroke-miterlimit="10" stroke-linecap="round" stroke-linejoin="round"/>
<path d="M142.884 290.379L141.662 293.724H85.6311L84.4091 290.379H72.5391V305.096H84.4091L85.6311 301.751H141.662L142.884 305.096H156.325V290.379H142.884Z" fill="#1F2937" stroke="#1F2937" stroke-width="1.2565" stroke-miterlimit="10" stroke-linecap="round" stroke-linejoin="round"/>
<path d="M142.884 322.489L141.662 325.833H85.6311L84.4091 322.489H72.5391V337.205H84.4091L85.6311 333.861H141.662L142.884 337.205H156.325V322.489H142.884Z" fill="#1F2937" stroke="#1F2937" stroke-width="1.2565" stroke-miterlimit="10" stroke-linecap="round" stroke-linejoin="round"/>
<path d="M142.884 338.543L141.662 341.888H85.6311L84.4091 338.543H72.5391V353.26H84.4091L85.6311 349.915H141.662L142.884 353.26H156.325V338.543H142.884Z" fill="#1F2937" stroke="#1F2937" stroke-width="1.2565" stroke-miterlimit="10" stroke-linecap="round" stroke-linejoin="round"/>
<path d="M142.884 354.598L141.662 357.943H85.6311L84.4091 354.598H72.5391V369.315H84.4091L85.6311 365.97H141.662L142.884 369.315H156.325V354.598H142.884Z" fill="#1F2937" stroke="#1F2937" stroke-width="1.2565" stroke-miterlimit="10" stroke-linecap="round" stroke-linejoin="round"/>
<path d="M142.884 370.653L141.662 373.997H85.6311L84.4091 370.653H72.5391V385.369H84.4091L85.6311 382.025H141.662L142.884 385.369H156.325V370.653H142.884Z" fill="#1F2937" stroke="#1F2937" stroke-width="1.2565" stroke-miterlimit="10" stroke-linecap="round" stroke-linejoin="round"/>
<path d="M142.884 386.707L141.662 390.052H85.6311L84.4091 386.707H72.5391V401.424H84.4091L85.6311 398.079H141.662L142.884 401.424H156.325V386.707H142.884Z" fill="#1F2937" stroke="#1F2937" stroke-width="1.2565" stroke-miterlimit="10" stroke-linecap="round" stroke-linejoin="round"/>
<path d="M156.298 309.39H49.6519V319.443H156.298V309.39Z" fill="#F3F4F6"/>
<path d="M58.6479 314.309C58.6479 312.757 57.3899 311.499 55.8369 311.499C54.2839 311.499 53.0259 312.757 53.0259 314.309C53.0259 315.861 54.2839 317.12 55.8369 317.12C57.3899 317.12 58.6479 315.861 58.6479 314.309Z" fill="#1F2937" stroke="#1F2937" stroke-width="1.2565" stroke-miterlimit="10" stroke-linecap="round" stroke-linejoin="round"/>
<path d="M65.2011 317.119C66.753 317.119 68.0111 315.861 68.0111 314.309C68.0111 312.757 66.753 311.499 65.2011 311.499C63.6492 311.499 62.3911 312.757 62.3911 314.309C62.3911 315.861 63.6492 317.119 65.2011 317.119Z" fill="#2F80ED" stroke="#1F2937" stroke-width="1.2565" stroke-miterlimit="10" stroke-linecap="round" stroke-linejoin="round"/>
<path d="M77.3739 314.309C77.3739 312.757 76.1159 311.499 74.5639 311.499C73.0119 311.499 71.7529 312.757 71.7529 314.309C71.7529 315.861 73.0109 317.12 74.5639 317.12C76.1169 317.12 77.3739 315.861 77.3739 314.309Z" fill="#1F2937" stroke="#1F2937" stroke-width="1.2565" stroke-miterlimit="10" stroke-linecap="round" stroke-linejoin="round"/>
<path d="M156.298 213.055H49.6519V223.108H156.298V213.055Z" fill="#F3F4F6"/>
<path d="M58.6479 217.974C58.6479 216.422 57.3899 215.163 55.8369 215.163C54.2839 215.163 53.0259 216.421 53.0259 217.974C53.0259 219.527 54.2839 220.785 55.8369 220.785C57.3899 220.785 58.6479 219.526 58.6479 217.974Z" fill="#F3F4F6" stroke="#1F2937" stroke-width="1.2565" stroke-miterlimit="10" stroke-linecap="round" stroke-linejoin="round"/>
<path d="M68.0107 217.974C68.0107 216.422 66.7527 215.163 65.1997 215.163C63.6467 215.163 62.3887 216.421 62.3887 217.974C62.3887 219.527 63.6467 220.785 65.1997 220.785C66.7527 220.785 68.0107 219.526 68.0107 217.974Z" fill="#2F80ED" stroke="#1F2937" stroke-width="1.2565" stroke-miterlimit="10" stroke-linecap="round" stroke-linejoin="round"/>
<path d="M77.3739 217.974C77.3739 216.422 76.1159 215.163 74.5639 215.163C73.0119 215.163 71.7529 216.421 71.7529 217.974C71.7529 219.527 73.0109 220.785 74.5639 220.785C76.1169 220.785 77.3739 219.526 77.3739 217.974Z" fill="#F3F4F6" stroke="#1F2937" stroke-width="1.2565" stroke-miterlimit="10" stroke-linecap="round" stroke-linejoin="round"/>
<path d="M156.298 200.129H49.6519V210.182H156.298V200.129Z" fill="#F3F4F6"/>
<path d="M58.6479 205.047C58.6479 203.495 57.3899 202.236 55.8369 202.236C54.2839 202.236 53.0259 203.494 53.0259 205.047C53.0259 206.599 54.2839 207.858 55.8369 207.858C57.3899 207.858 58.6479 206.6 58.6479 205.047Z" fill="#2F80ED" stroke="#1F2937" stroke-width="1.2565" stroke-miterlimit="10" stroke-linecap="round" stroke-linejoin="round"/>
<path d="M68.0107 205.047C68.0107 203.495 66.7527 202.236 65.1997 202.236C63.6467 202.236 62.3887 203.494 62.3887 205.047C62.3887 206.599 63.6467 207.858 65.1997 207.858C66.7527 207.858 68.0107 206.6 68.0107 205.047Z" fill="#1F2937" stroke="#1F2937" stroke-width="1.2565" stroke-miterlimit="10" stroke-linecap="round" stroke-linejoin="round"/>
<path d="M77.3739 205.047C77.3739 203.495 76.1159 202.236 74.5639 202.236C73.0119 202.236 71.7529 203.494 71.7529 205.047C71.7529 206.599 73.0109 207.858 74.5639 207.858C76.1169 207.858 77.3739 206.6 77.3739 205.047Z" fill="#1F2937" stroke="#1F2937" stroke-width="1.2565" stroke-miterlimit="10" stroke-linecap="round" stroke-linejoin="round"/>
<path d="M67.5139 226.409H49.9219V233.948H67.5139V226.409Z" fill="#1F2937" stroke="#1F2937" stroke-width="1.2565" stroke-miterlimit="10" stroke-linecap="round" stroke-linejoin="round"/>
<path d="M67.5139 242.744H49.9219V250.283H67.5139V242.744Z" fill="#1F2937" stroke="#1F2937" stroke-width="1.2565" stroke-miterlimit="10" stroke-linecap="round" stroke-linejoin="round"/>
<path d="M67.5139 259.079H49.9219V266.618H67.5139V259.079Z" fill="#2F80ED" stroke="#1F2937" stroke-width="1.2565" stroke-miterlimit="10" stroke-linecap="round" stroke-linejoin="round"/>
<path d="M67.5139 275.414H49.9219V282.953H67.5139V275.414Z" fill="#2F80ED" stroke="#1F2937" stroke-width="1.2565" stroke-miterlimit="10" stroke-linecap="round" stroke-linejoin="round"/>
<path d="M67.5139 291.749H49.9219V299.288H67.5139V291.749Z" fill="#2F80ED" stroke="#1F2937" stroke-width="1.2565" stroke-miterlimit="10" stroke-linecap="round" stroke-linejoin="round"/>
<path d="M67.5139 322.325H49.9219V329.864H67.5139V322.325Z" fill="#2F80ED" stroke="#1F2937" stroke-width="1.2565" stroke-miterlimit="10" stroke-linecap="round" stroke-linejoin="round"/>
<path d="M67.5139 338.66H49.9219V346.199H67.5139V338.66Z" fill="#1F2937" stroke="#1F2937" stroke-width="1.2565" stroke-miterlimit="10" stroke-linecap="round" stroke-linejoin="round"/>
<path d="M67.5139 354.995H49.9219V362.534H67.5139V354.995Z" fill="#2F80ED" stroke="#1F2937" stroke-width="1.2565" stroke-miterlimit="10" stroke-linecap="round" stroke-linejoin="round"/>
<path d="M67.5139 371.33H49.9219V378.869H67.5139V371.33Z" fill="#1F2937" stroke="#1F2937" stroke-width="1.2565" stroke-miterlimit="10" stroke-linecap="round" stroke-linejoin="round"/>
<path d="M67.5139 387.665H49.9219V395.204H67.5139V387.665Z" fill="#2F80ED" stroke="#1F2937" stroke-width="1.2565" stroke-miterlimit="10" stroke-linecap="round" stroke-linejoin="round"/>
<path d="M214.836 146.358C214.836 146.358 197.981 150.653 193.301 157.057C188.621 163.461 169.654 207.06 169.654 207.06C169.654 207.06 163.496 213.957 170.147 220.608C176.798 227.258 190.099 229.722 195.025 223.81C199.951 217.898 207.094 190.064 208.08 186.862C209.065 183.66 216.455 156.565 217.194 155.087C217.933 153.608 218.636 147.236 214.836 146.358Z" fill="#F3F4F6" stroke="#1F2937" stroke-width="1.2565" stroke-miterlimit="10" stroke-linecap="round" stroke-linejoin="round"/>
<path d="M214.836 146.358C214.836 146.358 197.981 150.653 193.301 157.057C190.469 160.933 182.406 178.427 176.479 191.639C179.356 191.056 191.356 189.279 205.406 196.36C206.764 191.637 207.756 187.914 208.08 186.861C209.065 183.659 216.455 156.564 217.194 155.086C217.933 153.608 218.636 147.236 214.836 146.358Z" fill="#1F2937" stroke="#1F2937" stroke-width="1.2565" stroke-miterlimit="10" stroke-linecap="round" stroke-linejoin="round"/>
<path d="M264.241 89.5658C264.241 89.5658 268.921 92.0288 270.892 96.7088C272.862 101.389 272.862 108.532 272.862 108.532C272.862 108.532 304.391 107.547 316.46 107.3C328.53 107.054 336.658 110.01 336.904 115.921C337.15 121.833 334.441 133.41 327.79 137.843C321.139 142.277 300.449 135.134 289.857 132.178C279.265 129.222 275.571 130.207 267.935 129.222C260.299 128.237 258.082 125.281 256.851 120.601C255.619 115.921 258.082 107.054 258.082 99.9098C258.083 92.7678 257.097 88.0878 264.241 89.5658Z" fill="#F3F4F6" stroke="#1F2937" stroke-width="1.2565" stroke-miterlimit="10" stroke-linecap="round" stroke-linejoin="round"/>
<path d="M310.302 119.863C310.302 119.863 305.868 131.194 297.74 137.351C291.906 141.771 284.042 144.287 280.068 145.356C265.865 141.378 245.801 139.477 234.071 142.084C234.071 142.084 217.686 146.002 214.836 146.358C211.986 146.714 205.219 169.511 203.794 185.184C202.369 200.857 207 239.683 207 242.532C207 245.382 208.781 292.756 211.631 305.936C214.481 319.116 217.686 336.926 218.043 339.419C218.399 341.912 220.893 360.435 220.893 366.49C220.893 372.545 218.043 387.15 218.043 387.15C218.043 387.15 205.22 395.699 200.233 400.686C195.246 405.673 203.902 410.919 210.207 412.084C220.952 414.069 233.716 403.535 233.716 403.535C233.716 403.535 247.802 397.901 247.963 397.836C251.756 396.319 252.876 392.246 252.968 388.595C253.19 379.804 253.413 371.013 253.635 362.222C255.875 371.567 257.714 381.007 259.147 390.509C259.734 394.406 260.327 398.498 262.682 401.658C263.873 403.255 265.796 405.194 267.626 406.048C269.044 406.71 270.552 406.57 271.977 407.391C274.607 408.907 275.691 412.194 278.245 413.837C283.262 417.064 290.511 418.731 296.407 418.495C296.407 418.495 310.655 419.207 311.367 411.371C312.079 403.535 292.845 390.711 292.845 390.711C292.845 390.711 289.995 338.706 287.858 321.608C285.721 304.51 280.022 276.727 280.022 264.616C280.022 252.505 285.721 195.513 285.721 195.513C285.721 195.513 286.302 194.01 287.193 191.566C287.505 191.401 287.818 191.23 288.134 191.048C296.263 186.368 318.924 168.14 326.313 156.563C333.388 145.48 335.947 124.688 336.152 118.613" fill="#F3F4F6"/>
<path d="M310.302 119.863C310.302 119.863 305.868 131.194 297.74 137.351C291.906 141.771 284.042 144.287 280.068 145.356C265.865 141.378 245.801 139.477 234.071 142.084C234.071 142.084 217.686 146.002 214.836 146.358C211.986 146.714 205.219 169.511 203.794 185.184C202.369 200.857 207 239.683 207 242.532C207 245.382 208.781 292.756 211.631 305.936C214.481 319.116 217.686 336.926 218.043 339.419C218.399 341.912 220.893 360.435 220.893 366.49C220.893 372.545 218.043 387.15 218.043 387.15C218.043 387.15 205.22 395.699 200.233 400.686C195.246 405.673 203.902 410.919 210.207 412.084C220.952 414.069 233.716 403.535 233.716 403.535C233.716 403.535 247.802 397.901 247.963 397.836C251.756 396.319 252.876 392.246 252.968 388.595C253.19 379.804 253.413 371.013 253.635 362.222C255.875 371.567 257.714 381.007 259.147 390.509C259.734 394.406 260.327 398.498 262.682 401.658C263.873 403.255 265.796 405.194 267.626 406.048C269.044 406.71 270.552 406.57 271.977 407.391C274.607 408.907 275.691 412.194 278.245 413.837C283.262 417.064 290.511 418.731 296.407 418.495C296.407 418.495 310.655 419.207 311.367 411.371C312.079 403.535 292.845 390.711 292.845 390.711C292.845 390.711 289.995 338.706 287.858 321.608C285.721 304.51 280.022 276.727 280.022 264.616C280.022 252.505 285.721 195.513 285.721 195.513C285.721 195.513 286.302 194.01 287.193 191.566C287.505 191.401 287.818 191.23 288.134 191.048C296.263 186.368 318.924 168.14 326.313 156.563C333.388 145.48 335.947 124.688 336.152 118.613" stroke="#1F2937" stroke-width="1.2565" stroke-miterlimit="10" stroke-linecap="round" stroke-linejoin="round"/>
<path d="M311.366 411.37C312.078 403.534 292.844 390.71 292.844 390.71C292.844 390.71 292.624 386.704 292.262 380.563C280.204 383.489 268.635 384.552 258.18 384.54C258.516 386.527 258.845 388.515 259.145 390.508C259.733 394.405 260.325 398.497 262.68 401.657C263.871 403.254 265.794 405.193 267.624 406.047C269.043 406.709 270.55 406.569 271.975 407.39C274.605 408.906 275.689 412.193 278.243 413.836C283.26 417.063 290.509 418.73 296.405 418.494C296.405 418.494 310.654 419.206 311.366 411.37Z" fill="#1F2937" stroke="#1F2937" stroke-width="1.2565" stroke-miterlimit="10" stroke-linecap="round" stroke-linejoin="round"/>
<path d="M247.961 397.836C251.754 396.319 252.874 392.246 252.966 388.595C253.001 387.217 253.036 385.838 253.071 384.46C238.735 383.971 226.906 381.593 219.377 379.639C218.696 383.796 218.042 387.149 218.042 387.149C218.042 387.149 205.219 395.698 200.232 400.685C195.245 405.672 203.901 410.918 210.206 412.083C220.951 414.068 233.715 403.534 233.715 403.534C233.715 403.534 247.801 397.9 247.961 397.836Z" fill="#1F2937" stroke="#1F2937" stroke-width="1.2565" stroke-miterlimit="10" stroke-linecap="round" stroke-linejoin="round"/>
<path d="M311.366 411.371C311.377 411.256 311.369 411.137 311.37 411.021C309.168 412.678 305.793 414.424 300.755 415.32C289.497 417.321 279.24 411.567 276.488 409.066C273.736 406.564 271.985 404.563 267.732 401.811C263.479 399.059 259.619 392.294 259.619 392.294L259.461 392.539C259.992 395.791 260.73 399.044 262.679 401.659C263.87 403.256 265.793 405.195 267.623 406.049C269.042 406.711 270.549 406.571 271.974 407.392C274.604 408.908 275.688 412.195 278.242 413.838C283.259 417.065 290.508 418.732 296.404 418.496C296.406 418.495 310.654 419.207 311.366 411.371Z" fill="#F3F4F6" stroke="#1F2937" stroke-width="1.2565" stroke-miterlimit="10" stroke-linecap="round" stroke-linejoin="round"/>
<path d="M247.961 397.836C251.267 396.514 252.541 393.249 252.875 390.016C249.604 391.968 242.015 396.387 237.212 398.309C230.958 400.811 226.705 408.316 214.446 408.316C205.705 408.316 200.922 404.89 198.889 402.919C197.805 407.146 204.841 411.094 210.205 412.085C220.95 414.07 233.714 403.536 233.714 403.536C233.714 403.536 247.801 397.9 247.961 397.836Z" fill="#F3F4F6" stroke="#1F2937" stroke-width="1.2565" stroke-miterlimit="10" stroke-linecap="round" stroke-linejoin="round"/>
<path d="M294.235 139.667C289.058 142.674 283.287 144.491 280.068 145.356C265.865 141.378 245.801 139.477 234.071 142.084C234.071 142.084 217.686 146.002 214.836 146.358C211.986 146.714 205.219 169.511 203.794 185.184C202.915 194.857 204.342 213.343 205.563 226.754C235.246 237.633 266.905 233.903 282.387 230.938C283.953 213.185 285.72 195.514 285.72 195.514C285.72 195.514 286.301 194.011 287.192 191.567C287.504 191.402 287.817 191.231 288.133 191.049C293.655 187.869 305.882 178.437 315.474 169.085C296.224 163.499 293.89 148.318 294.235 139.667Z" fill="#1F2937" stroke="#1F2937" stroke-width="1.2565" stroke-miterlimit="10" stroke-linecap="round" stroke-linejoin="round"/>
<path d="M266.629 156.663C266.629 150.588 263.482 145.155 258.529 141.466C249.431 140.587 240.499 140.655 234.071 142.083C234.071 142.083 229.543 143.166 224.834 144.244C221.702 147.665 219.818 151.971 219.818 156.662C219.818 167.772 230.297 176.779 243.223 176.779C256.149 176.779 266.629 167.773 266.629 156.663Z" fill="#6B7280" stroke="#1F2937" stroke-width="1.2565" stroke-miterlimit="10" stroke-linecap="round" stroke-linejoin="round"/>
<path d="M259.62 392.293C262.672 393.433 268.357 394.974 276.28 394.629C288.569 394.095 292.843 390.711 292.843 390.711C292.843 390.711 289.993 338.706 287.856 321.608C285.719 304.51 280.02 276.727 280.02 264.616C280.02 257.478 281.999 234.752 283.625 217.29C283.371 217.321 283.116 217.352 282.861 217.381C274.166 218.386 266.599 211.449 266.859 202.7L267.197 191.327C267.197 191.327 255.977 192.396 239.413 190.526C222.85 188.656 205.752 183.046 205.752 183.046L203.953 183.6C203.894 184.135 203.84 184.664 203.793 185.184C202.368 200.857 206.999 239.683 206.999 242.532C206.999 245.382 208.78 292.756 211.63 305.936C214.48 319.115 217.685 336.925 218.041 339.419C218.397 341.912 220.891 360.435 220.891 366.49C220.891 372.436 218.145 386.615 218.046 387.125C220.184 387.789 224.667 389.144 232.735 391.424C245.024 394.897 252.949 390.712 252.949 390.712C252.949 386.438 253.661 362.216 253.661 362.216C253.661 362.216 258.16 382.71 259.62 392.293Z" fill="#2F80ED" stroke="#1F2937" stroke-width="1.2565" stroke-miterlimit="10" stroke-linecap="round" stroke-linejoin="round"/>
<path d="M218.927 198.052L250.924 203.311V223.035L232.953 241.006L218.489 223.474L218.927 198.052Z" stroke="#1F2937" stroke-width="1.2565" stroke-miterlimit="10" stroke-linecap="round" stroke-linejoin="round"/>
<path d="M242.02 308.945C239.714 295.921 237.989 283.096 237.989 273.878L225.166 265.329" stroke="#1F2937" stroke-width="1.2565" stroke-miterlimit="10" stroke-linecap="round" stroke-linejoin="round"/>
<path d="M253.662 362.215C253.662 362.215 248.261 341.348 243.8 318.492" stroke="#1F2937" stroke-width="1.2565" stroke-miterlimit="10" stroke-linecap="round" stroke-linejoin="round"/>
<path d="M263.186 251.734C263.462 252.815 263.888 253.923 264.512 255.032C268.457 262.045 274.155 262.922 274.155 262.922L275.032 244.513" stroke="#1F2937" stroke-width="1.2565" stroke-miterlimit="10" stroke-linecap="round" stroke-linejoin="round"/>
<path d="M264.512 241.006C264.512 241.006 263.568 242.685 263.065 245.221" stroke="#1F2937" stroke-width="1.2565" stroke-miterlimit="10" stroke-linecap="round" stroke-linejoin="round"/>
<path d="M280.223 297.022C280.685 299.449 281.149 301.837 281.606 304.122" stroke="#1F2937" stroke-width="1.2565" stroke-miterlimit="10" stroke-linecap="round" stroke-linejoin="round"/>
<path d="M274.154 262.922C274.154 262.922 276.405 276.428 279.018 290.592" stroke="#1F2937" stroke-width="1.2565" stroke-miterlimit="10" stroke-linecap="round" stroke-linejoin="round"/>
<path d="M231.984 134.504L231.803 145.004C231.803 145.004 228.182 147.9 227.458 155.504C226.734 163.107 233.975 170.167 242.122 170.167C250.268 170.167 257.329 163.831 258.596 158.038C259.863 152.245 258.234 143.918 258.234 143.918L257.691 131.246C257.691 131.246 249.726 136.315 242.122 134.867C234.518 133.419 232.346 130.703 232.346 130.703L231.984 134.504Z" fill="#F3F4F6" stroke="#1F2937" stroke-width="1.2565" stroke-miterlimit="10" stroke-linecap="round" stroke-linejoin="round"/>
<path d="M226.312 107.099C226.312 107.099 225.825 113.11 227.124 114.572C228.424 116.034 230.211 117.171 230.536 115.872C230.861 114.572 231.023 107.749 231.348 106.287C231.673 104.824 226.474 103.037 226.312 107.099Z" fill="#F3F4F6" stroke="#1F2937" stroke-width="1.2565" stroke-miterlimit="10" stroke-linecap="round" stroke-linejoin="round"/>
<path d="M229.487 107.01C229.487 107.01 227.983 119.041 227.983 124.805C227.983 130.57 225.727 132.825 232.996 136.585C240.264 140.345 246.531 140.846 251.543 139.092C256.556 137.337 259.313 133.076 259.563 129.568C259.814 126.059 259.814 120.545 259.814 120.545C259.814 120.545 266.832 114.279 265.328 109.517C263.824 104.755 260.566 110.77 260.566 110.77C260.566 110.77 262.822 104.504 262.571 97.987C262.32 91.47 257.308 90.718 255.302 90.718C253.297 90.718 241.016 86.958 235.251 90.718C229.487 94.478 229.487 107.01 229.487 107.01Z" fill="#F3F4F6" stroke="#1F2937" stroke-width="1.2565" stroke-miterlimit="10" stroke-linecap="round" stroke-linejoin="round"/>
<path d="M260.567 110.77C260.567 110.77 262.823 104.504 262.572 97.987C262.321 91.47 257.309 90.718 255.303 90.718C255.268 90.718 255.208 90.709 255.167 90.707C254.107 92.491 252.797 95.23 252.797 95.23L253.8 95.731C253.8 95.731 252.797 101.245 254.803 101.997C256.808 102.749 255.805 104.503 255.805 107.511C255.805 110.519 257.56 112.774 258.562 112.774C259.351 112.774 260.602 110.762 261.101 109.902C260.771 110.393 260.567 110.77 260.567 110.77Z" fill="#1F2937" stroke="#1F2937" stroke-width="1.2565" stroke-miterlimit="10" stroke-linecap="round" stroke-linejoin="round"/>
<path d="M240.771 111.485C240.771 111.485 238.659 113.435 239.634 114.897C240.609 116.359 244.183 117.171 245.158 115.384C246.133 113.597 244.995 111.972 244.508 111.647" stroke="#1F2937" stroke-width="1.2565" stroke-miterlimit="10" stroke-linecap="round" stroke-linejoin="round"/>
<path d="M238.496 109.536C238.496 110.523 238.096 111.323 237.602 111.323C237.109 111.323 236.709 110.523 236.709 109.536C236.709 108.549 237.109 107.749 237.602 107.749C238.096 107.749 238.496 108.549 238.496 109.536Z" fill="#1F2937"/>
<path d="M249.3 110.023C249.3 111.01 248.9 111.81 248.406 111.81C247.913 111.81 247.513 111.01 247.513 110.023C247.513 109.036 247.913 108.236 248.406 108.236C248.9 108.236 249.3 109.036 249.3 110.023Z" fill="#1F2937"/>
<path d="M246.619 105.149C246.619 105.149 250.031 102.875 253.28 106.449" stroke="#1F2937" stroke-width="1.2565" stroke-miterlimit="10" stroke-linecap="round" stroke-linejoin="round"/>
<path d="M241.442 121.142C241.442 121.142 240.019 120.376 238.66 121.02C237.302 121.665 237.043 122.758 237.043 122.758C237.043 122.758 234.961 124.434 237.154 125.165C239.347 125.896 244.125 125.843 245.357 125.786C246.588 125.729 246.993 124.463 246.959 123.716C246.925 122.969 246.452 122.741 246.452 122.741C246.452 122.741 244.774 119.824 241.442 121.142Z" fill="#6B7280" stroke="#1F2937" stroke-width="0.9227" stroke-miterlimit="10" stroke-linecap="round" stroke-linejoin="round"/>
<path d="M236.569 123.386C236.569 123.386 241.039 122.446 246.662 123.988" stroke="#1F2937" stroke-width="1.0733" stroke-miterlimit="10" stroke-linecap="round" stroke-linejoin="round"/>
<path d="M225.227 93.225L252.045 96.985C252.045 96.985 263.324 93.977 264.326 91.722C265.329 89.466 261.569 78.187 259.564 75.43C257.559 72.673 238.26 77.435 232.244 78.438C226.229 79.441 221.717 80.944 221.968 83.952C222.219 86.959 225.227 93.225 225.227 93.225Z" fill="#2F80ED" stroke="#1F2937" stroke-width="1.2565" stroke-miterlimit="10" stroke-linecap="round" stroke-linejoin="round"/>
<path d="M225.227 93.2246C225.227 93.2246 209.938 105.757 209.687 107.01C209.436 108.263 231.994 108.765 239.012 107.261C246.03 105.757 252.045 96.9846 252.045 96.9846L225.227 93.2246Z" fill="#F3F4F6" stroke="#1F2937" stroke-width="1.2565" stroke-miterlimit="10" stroke-linecap="round" stroke-linejoin="round"/>
<path d="M208.522 259.36L250.571 234.731C253.159 236.67 256.761 236.988 259.727 235.251C263.076 233.289 264.528 229.34 263.481 225.777L254.71 230.914L252.685 227.456L261.456 222.319C258.86 219.663 254.706 218.997 251.356 220.959C248.39 222.696 246.905 225.993 247.331 229.199L205.282 253.828C202.694 251.889 199.092 251.571 196.126 253.308C192.777 255.27 191.325 259.219 192.372 262.782L200.912 257.78L202.937 261.238L194.397 266.24C196.993 268.896 201.147 269.562 204.497 267.6C207.463 265.862 208.948 262.566 208.522 259.36Z" fill="#2F80ED" stroke="#1F2937" stroke-width="1.2565" stroke-miterlimit="10" stroke-linecap="round" stroke-linejoin="round"/>
<path d="M244.289 241.052C244.289 241.052 249.462 244.747 249.462 248.195C249.462 251.643 243.304 255.338 239.117 255.585C234.93 255.831 234.191 251.151 234.93 248.688C235.668 246.225 244.289 241.052 244.289 241.052Z" fill="#F3F4F6" stroke="#1F2937" stroke-width="1.2565" stroke-miterlimit="10" stroke-linecap="round" stroke-linejoin="round"/>
<path d="M190.099 210.261C190.099 210.261 218.672 226.272 222.613 225.779C226.554 225.286 231.973 221.838 234.929 222.823C237.885 223.808 246.013 236.371 246.752 238.587C247.491 240.804 240.84 248.686 239.363 249.918C237.885 251.15 233.205 256.076 232.22 256.569C231.235 257.062 224.831 262.727 221.628 262.727C218.426 262.727 213.007 260.264 212.514 259.032C212.021 257.801 213.253 256.076 213.253 256.076L198.228 249.179C198.228 249.179 169.655 233.661 164.729 225.779C159.803 217.897 172.118 203.857 172.118 203.857" fill="#F3F4F6"/>
<path d="M190.099 210.261C190.099 210.261 218.672 226.272 222.613 225.779C226.554 225.286 231.973 221.838 234.929 222.823C237.885 223.808 246.013 236.371 246.752 238.587C247.491 240.804 240.84 248.686 239.363 249.918C237.885 251.15 233.205 256.076 232.22 256.569C231.235 257.062 224.831 262.727 221.628 262.727C218.426 262.727 213.007 260.264 212.514 259.032C212.021 257.801 213.253 256.076 213.253 256.076L198.228 249.179C198.228 249.179 169.655 233.661 164.729 225.779C159.803 217.897 172.118 203.857 172.118 203.857" stroke="#1F2937" stroke-width="1.2565" stroke-miterlimit="10" stroke-linecap="round" stroke-linejoin="round"/>
<path d="M223.106 248.934C223.106 248.934 226.062 249.18 226.554 252.382C227.047 255.584 225.815 261.249 225.815 261.249" stroke="#1F2937" stroke-width="1.2565" stroke-miterlimit="10" stroke-linecap="round" stroke-linejoin="round"/>
<path d="M228.771 244.254C228.771 244.254 232.219 244.5 232.219 247.702C232.219 250.904 232.219 256.569 232.219 256.569" stroke="#1F2937" stroke-width="1.2565" stroke-miterlimit="10" stroke-linecap="round" stroke-linejoin="round"/>
<path d="M232.466 235.387C232.466 235.387 238.87 240.067 239.363 242.776C239.855 245.486 239.363 249.919 239.363 249.919" stroke="#1F2937" stroke-width="1.2565" stroke-miterlimit="10" stroke-linecap="round" stroke-linejoin="round"/>
<path d="M261.025 218.501C262.456 218.501 266.273 208.96 266.273 205.382C266.273 201.804 267.943 175.566 271.759 163.401C274.497 154.672 276.861 147.928 277.981 144.804C275.069 144.058 271.964 143.395 268.756 142.84C266.85 148.628 261.018 166.696 258.64 178.19C255.778 192.025 256.493 208.483 256.732 209.914C256.97 211.345 259.593 218.501 261.025 218.501Z" fill="#2F80ED" stroke="#1F2937" stroke-width="1.2565" stroke-miterlimit="10" stroke-linecap="round" stroke-linejoin="round"/>
<path d="M265.128 199.208L256.922 198.119C256.25 198.03 255.777 197.413 255.867 196.74L256.736 190.189C256.825 189.517 257.443 189.044 258.115 189.133L266.321 190.222C266.993 190.311 267.466 190.928 267.377 191.6L266.508 198.151C266.417 198.825 265.8 199.298 265.128 199.208Z" fill="#F3F4F6" stroke="#1F2937" stroke-width="1.2565" stroke-miterlimit="10" stroke-linecap="round" stroke-linejoin="round"/>
<path d="M263.368 197.271L259.127 196.708C258.455 196.619 257.982 196.002 258.071 195.33L258.496 192.127C258.585 191.455 259.202 190.982 259.874 191.071L264.116 191.634C264.788 191.723 265.261 192.34 265.171 193.013L264.746 196.216C264.657 196.888 264.04 197.361 263.368 197.271Z" fill="#2F80ED" stroke="#1F2937" stroke-width="1.2565" stroke-miterlimit="10" stroke-linecap="round" stroke-linejoin="round"/>
<path d="M207.595 214.923C209.026 214.923 212.843 205.382 212.843 201.804C212.843 198.226 214.513 171.988 218.329 159.823C220.753 152.097 222.404 147.17 223.288 144.597C219.564 145.441 216.024 146.209 214.836 146.357C213.961 146.466 212.716 148.697 211.371 152.182C209.791 157.077 207.856 163.453 206.335 169.659C205.165 174.937 204.229 180.392 203.794 185.183C203.427 189.222 203.465 194.805 203.719 200.905C203.742 201.086 203.762 201.231 203.778 201.326C204.017 202.758 206.163 214.923 207.595 214.923Z" fill="#2F80ED" stroke="#1F2937" stroke-width="1.2565" stroke-miterlimit="10" stroke-linecap="round" stroke-linejoin="round"/>
<path d="M212.064 191.722L203.832 190.843C203.158 190.771 202.67 190.166 202.742 189.492L203.443 182.921C203.515 182.247 204.12 181.759 204.794 181.831L213.026 182.709C213.7 182.781 214.188 183.386 214.116 184.06L213.415 190.631C213.343 191.305 212.738 191.794 212.064 191.722Z" fill="#F3F4F6" stroke="#1F2937" stroke-width="1.2565" stroke-miterlimit="10" stroke-linecap="round" stroke-linejoin="round"/>
<path d="M210.255 189.83L206 189.376C205.326 189.304 204.838 188.699 204.91 188.025L205.253 184.812C205.325 184.138 205.93 183.65 206.604 183.722L210.859 184.176C211.533 184.248 212.021 184.853 211.949 185.527L211.606 188.74C211.534 189.414 210.929 189.902 210.255 189.83Z" fill="#2F80ED" stroke="#1F2937" stroke-width="1.2565" stroke-miterlimit="10" stroke-linecap="round" stroke-linejoin="round"/>
</svg>
